<svg width="988" height="737" viewBox="0 0 988 737" fill="none" xmlns="http://www.w3.org/2000/svg">
<path d="M458.272 254.657H457.962V297.156H458.272V254.657Z" fill="#AAAAAA"/>
<path d="M457.961 254.657V297.156C446.25 297.156 434.693 297.466 423.447 298.164V255.666C434.693 254.968 446.25 254.657 457.961 254.657Z" fill="#00316B"/>
<path d="M457.961 254.657V297.156C454.703 297.156 451.523 297.156 448.344 297.233V254.735C451.523 254.657 454.703 254.657 457.961 254.657Z" fill="#00316B"/>
<path d="M448.344 254.735V297.233C441.829 297.311 435.391 297.544 429.109 297.854V255.355C435.391 255.045 441.829 254.813 448.344 254.735Z" fill="#00316B"/>
<path d="M429.032 255.355V297.854C427.17 297.931 425.309 298.086 423.447 298.164V255.665C425.309 255.51 427.17 255.433 429.032 255.355Z" fill="#00316B"/>
<path d="M423.447 255.666V298.164L411.969 264.817V222.319L423.447 255.666Z" fill="#707070"/>
<path d="M458.271 221V254.658H457.961C446.25 254.658 434.693 254.968 423.447 255.666L411.969 222.318C426.55 221.465 443.613 221 458.271 221Z" fill="#0045A8"/>
<path d="M411.968 222.319L423.447 255.666C369.854 258.613 321.767 268.54 284.616 283.042L227.3 258.923C280.118 238.139 339.218 226.506 411.968 222.319Z" fill="#CE7BFF"/>
<path d="M423.447 255.666V298.164C369.854 301.111 321.767 311.038 284.616 325.617V283.119C321.767 268.539 369.854 258.613 423.447 255.666Z" fill="#A955E5"/>
<path d="M423.447 255.666V298.164C416.467 298.552 409.564 299.095 402.816 299.638V257.139C409.642 256.519 416.467 256.053 423.447 255.666Z" fill="#A955E5"/>
<path d="M402.816 257.139V299.637C391.182 300.723 379.781 302.119 368.845 303.825V261.326C379.781 259.62 391.182 258.224 402.816 257.139Z" fill="#A955E5"/>
<path d="M368.845 261.327V303.825C342.088 308.013 317.501 313.984 296.095 321.352V278.853C317.501 271.408 342.088 265.437 368.845 261.327Z" fill="#A955E5"/>
<path d="M296.095 278.854V321.352C292.217 322.67 288.339 324.144 284.694 325.54V283.041C288.339 281.645 292.14 280.172 296.095 278.854Z" fill="#A955E5"/>
<path d="M284.616 283.042V325.54L227.3 301.422V258.923L284.616 283.042Z" fill="black"/>
<path d="M284.616 283.042V325.54C256.462 336.553 234.746 350.202 221.716 365.635V323.136C234.746 307.781 256.54 294.132 284.616 283.042Z" fill="#470972"/>
<path d="M284.616 283.042V325.54C279.187 327.712 273.913 329.961 268.949 332.287V289.789C273.913 287.462 279.187 285.213 284.616 283.042Z" fill="#470972"/>
<path d="M268.95 289.789V332.287C263.21 335.001 257.781 337.793 252.817 340.74V298.242C257.859 295.295 263.21 292.503 268.95 289.789Z" fill="#470972"/>
<path d="M252.817 298.242V340.74C248.629 343.144 244.751 345.703 241.106 348.263V305.764C244.751 303.205 248.629 300.646 252.817 298.242Z" fill="#470972"/>
<path d="M241.106 305.765V348.263C237.848 350.59 234.823 352.916 232.031 355.321V312.822C234.901 310.418 237.848 308.014 241.106 305.765Z" fill="#470972"/>
<path d="M232.032 312.821V355.32C229.472 357.569 227.068 359.818 224.819 362.145V319.646C227.068 317.319 229.472 314.993 232.032 312.821Z" fill="#470972"/>
<path d="M224.896 319.646V362.145C223.81 363.308 222.724 364.471 221.794 365.634V323.136C222.724 321.973 223.81 320.809 224.896 319.646Z" fill="#470972"/>
<path d="M221.717 323.136V365.635L143.847 354.7V312.201L221.717 323.136Z" fill="#424242"/>
<path d="M227.301 258.923L284.617 283.042C256.463 294.054 234.669 307.703 221.717 323.136L143.847 312.201C161.763 291.03 187.668 274.511 227.301 258.923Z" fill="#7614AF"/>
<path d="M774.557 314.45V356.949L695.602 367.418V324.92L774.557 314.45Z" fill="black"/>
<path d="M458.271 221C605.168 221 729.108 257.605 774.635 314.45L695.602 324.92C663.182 284.205 569.181 254.735 458.271 254.658V221Z" fill="#235FC9"/>
<path d="M695.602 324.919V367.418C663.182 326.703 569.181 297.233 458.271 297.156V254.657C569.181 254.735 663.182 284.127 695.602 324.919Z" fill="#0848A3"/>
<path d="M695.602 324.919V367.418C682.572 351.054 659.615 336.552 629.677 324.997V282.421C659.615 293.976 682.572 308.556 695.602 324.919Z" fill="#0848A3"/>
<path d="M629.599 282.421V324.919C622.619 322.205 615.251 319.723 607.495 317.319V274.898C615.251 277.225 622.619 279.784 629.599 282.421Z" fill="#0848A3"/>
<path d="M607.495 274.899V317.397C601.368 315.536 595.008 313.752 588.493 312.124V269.625C595.008 271.254 601.368 273.038 607.495 274.899Z" fill="#0848A3"/>
<path d="M588.493 269.625V312.124C582.754 310.65 576.782 309.332 570.732 308.091V265.592C576.782 266.833 582.754 268.152 588.493 269.625Z" fill="#0848A3"/>
<path d="M570.732 265.592V308.091C565.148 306.927 559.486 305.842 553.669 304.911V262.413C559.486 263.343 565.226 264.429 570.732 265.592Z" fill="#0848A3"/>
<path d="M553.747 262.413V304.911C548.318 303.981 542.733 303.128 537.072 302.352V259.854C542.656 260.629 548.24 261.482 553.747 262.413Z" fill="#0848A3"/>
<path d="M536.994 259.854V302.352C531.565 301.576 525.98 300.956 520.319 300.336V257.837C525.98 258.458 531.565 259.078 536.994 259.854Z" fill="#0848A3"/>
<path d="M520.396 257.837V300.335C514.812 299.715 509.227 299.25 503.488 298.784V256.363C509.227 256.751 514.812 257.294 520.396 257.837Z" fill="#0848A3"/>
<path d="M503.488 256.363V298.862C497.749 298.396 491.932 298.086 486.037 297.776V255.277C491.932 255.51 497.749 255.898 503.488 256.363Z" fill="#0848A3"/>
<path d="M486.115 255.278V297.776C480.065 297.466 474.016 297.311 467.811 297.233V254.735C473.938 254.813 480.065 254.968 486.115 255.278Z" fill="#0848A3"/>
<path d="M467.811 254.735V297.233C464.631 297.156 461.451 297.156 458.271 297.156V254.657C461.451 254.657 464.631 254.657 467.811 254.735Z" fill="#0848A3"/>
<path d="M221.716 323.136V365.635C212.952 376.027 208.066 387.117 208.066 398.75V356.251C208.143 344.618 212.952 333.528 221.716 323.136Z" fill="#7315AA"/>
<path d="M221.716 323.136V365.635C220.786 366.721 219.855 367.884 219.079 368.97V326.471C219.932 325.308 220.786 324.222 221.716 323.136Z" fill="#7315AA"/>
<path d="M219.079 326.471V368.97C217.372 371.219 215.899 373.468 214.58 375.795V333.296C215.899 330.969 217.372 328.72 219.079 326.471Z" fill="#7315AA"/>
<path d="M214.581 333.296V375.795C213.262 378.121 212.176 380.448 211.246 382.774V340.276C212.099 337.949 213.262 335.623 214.581 333.296Z" fill="#7315AA"/>
<path d="M211.246 340.275V382.774C210.315 385.178 209.617 387.582 209.074 389.986V347.487C209.539 345.083 210.315 342.679 211.246 340.275Z" fill="#7315AA"/>
<path d="M209.074 347.488V389.986C208.531 392.546 208.221 395.105 208.143 397.664V355.165C208.221 352.606 208.531 350.047 209.074 347.488Z" fill="#7315AA"/>
<path d="M707.779 356.251V398.749C707.779 387.815 703.513 377.268 695.602 367.418V324.92C703.513 334.769 707.779 345.316 707.779 356.251Z" fill="#B7510B"/>
<path d="M707.779 356.251V398.749C707.779 387.815 703.513 377.268 695.602 367.418V324.92C703.513 334.769 707.779 345.316 707.779 356.251Z" fill="#B7510B"/>
<path d="M774.557 314.45C788.983 332.598 793.637 348.961 789.526 368.039L706.848 365.092C707.391 362.222 707.779 359.276 707.779 356.251C707.779 345.316 703.513 334.769 695.602 324.92L774.557 314.45Z" fill="#ED7D31"/>
<path d="M791 355.088V397.586C791 398.051 791 398.517 791 398.982V356.484C790.923 356.018 791 355.553 791 355.088Z" fill="#818181"/>
<path d="M790.923 356.484V398.982C790.845 402.627 790.38 406.35 789.527 410.15V367.651C790.38 363.851 790.845 360.129 790.923 356.484Z" fill="#B7510B"/>
<path d="M789.604 367.729V410.227C789.604 410.305 789.527 410.46 789.527 410.537V368.039C789.527 367.884 789.604 367.806 789.604 367.729Z" fill="#8A8A8A"/>
<path d="M789.526 368.038V410.537L706.849 407.59V365.091L789.526 368.038Z" fill="#A6A6A6"/>
<path d="M706.849 365.091L789.527 368.038C788.518 372.769 787.82 375.018 785.726 379.749L704.056 373.855C705.297 370.985 706.228 368.038 706.849 365.091Z" fill="#70AD47"/>
<path d="M785.726 379.749V422.247L704.056 416.353V373.855L785.726 379.749Z" fill="#5D5D5D"/>
<path d="M789.526 368.038V410.537C788.518 415.268 787.82 417.517 785.726 422.247V379.749C787.82 375.018 788.518 372.769 789.526 368.038Z" fill="#4F871E"/>
<path d="M789.526 368.038V410.537C789.448 410.77 789.448 410.925 789.371 411.157V368.659C789.448 368.426 789.448 368.271 789.526 368.038Z" fill="#4F871E"/>
<path d="M789.371 368.659V411.157C788.751 414.259 788.13 416.276 787.2 418.835V376.336C788.208 373.777 788.751 371.761 789.371 368.659Z" fill="#4F871E"/>
<path d="M787.199 376.336V418.835C786.811 419.843 786.346 420.929 785.803 422.247V379.748C786.346 378.43 786.811 377.344 787.199 376.336Z" fill="#4F871E"/>
<path d="M125 398.517V356.018C125 369.125 130.119 382.231 140.279 395.725V438.223C130.119 424.729 125 411.623 125 398.517Z" fill="#7315AA"/>
<path d="M140.279 395.725V438.223C130.119 424.729 125 411.623 125 398.517V356.018C125 369.125 130.119 382.231 140.279 395.725Z" fill="#7315AA"/>
<path d="M143.847 312.201L221.716 323.136C212.952 333.528 208.066 344.618 208.066 356.251C208.066 366.643 211.943 376.569 218.924 386.031L140.279 395.725C118.795 367.186 119.958 340.43 143.847 312.201Z" fill="#B337F3"/>
<path d="M219.001 386.031V428.529L140.279 438.301V395.725L219.001 386.031Z" fill="#9B9B9B"/>
<path d="M785.726 379.749V422.247C772.929 451.64 742.06 475.293 689.165 496.077V453.578C742.138 432.794 773.006 409.141 785.726 379.749Z" fill="#189396"/>
<path d="M785.726 379.749V422.247C784.563 424.962 783.244 427.598 781.693 430.235V387.737C783.244 385.1 784.563 382.463 785.726 379.749Z" fill="#189396"/>
<path d="M781.77 387.737V430.235C779.909 433.493 777.815 436.672 775.488 439.852V397.353C777.815 394.174 779.909 390.994 781.77 387.737Z" fill="#189396"/>
<path d="M775.411 397.276V439.774C773.161 442.799 770.602 445.746 767.887 448.615V406.117C770.68 403.247 773.161 400.3 775.411 397.276Z" fill="#189396"/>
<path d="M767.887 406.194V448.693C765.095 451.64 762.148 454.432 758.89 457.223V414.725C762.148 411.933 765.173 409.064 767.887 406.194Z" fill="#189396"/>
<path d="M758.891 414.725V457.223C755.478 460.17 751.755 463.04 747.8 465.832V423.333C751.755 420.541 755.478 417.672 758.891 414.725Z" fill="#189396"/>
<path d="M747.8 423.333V465.831C743.301 469.011 738.493 472.113 733.296 475.138V432.639C738.493 429.615 743.301 426.513 747.8 423.333Z" fill="#189396"/>
<path d="M733.296 432.639V475.137C726.858 478.937 719.8 482.582 712.2 486.15V443.651C719.8 440.084 726.858 436.439 733.296 432.639Z" fill="#189396"/>
<path d="M712.2 443.729V486.228C705.064 489.562 697.386 492.82 689.242 496.077V453.578C697.386 450.321 705.064 447.064 712.2 443.729Z" fill="#189396"/>
<path d="M704.056 373.855L785.726 379.749C772.928 409.141 742.06 432.794 689.165 453.578L631.616 429.304C668.767 414.647 694.749 395.414 704.056 373.855Z" fill="#3BE0ED"/>
<path d="M689.242 453.501V496.077L631.693 471.803V429.227L689.242 453.501Z" fill="#242424"/>
<path d="M689.241 453.501V495.999C676.056 501.195 664.035 505.228 649.066 509.493V466.995C664.035 462.73 676.056 458.697 689.241 453.501Z" fill="#BC8B00"/>
<path d="M689.243 453.501V495.999C683.891 498.093 678.695 500.032 673.421 501.816V459.317C678.617 457.534 683.814 455.672 689.243 453.501Z" fill="#BC8B00"/>
<path d="M673.343 459.395V501.893C665.665 504.53 657.831 507.012 648.99 509.493V466.995C657.909 464.513 665.742 462.032 673.343 459.395Z" fill="#BC8B00"/>
<path d="M631.693 429.227L689.242 453.501C676.057 458.697 664.035 462.73 649.066 466.995L601.523 439.386C612.148 436.362 622.309 432.95 631.693 429.227Z" fill="#FFC000"/>
<path d="M648.99 466.995V509.494L601.446 481.963V439.387L648.99 466.995Z" fill="#545454"/>
<path d="M219.001 386.031C250.18 427.599 345.423 457.922 457.961 457.922C511.399 457.922 560.882 451.097 601.445 439.464L648.989 467.073C590.975 483.591 524.429 491.502 458.581 491.502C353.722 491.502 250.568 471.416 185.884 433.803C164.788 421.55 150.982 410.072 140.279 395.725L219.001 386.031Z" fill="#EE32BC"/>
<path d="M648.989 466.995V509.494C590.975 526.012 524.429 533.923 458.581 533.923C353.722 533.923 250.568 513.837 185.884 476.224C164.788 463.971 150.982 452.493 140.279 438.146V395.647C150.982 409.917 164.788 421.472 185.884 433.725C250.568 471.338 353.722 491.424 458.581 491.424C524.429 491.502 590.975 483.514 648.989 466.995Z" fill="#A5258A"/>
<path d="M648.989 466.995V509.493C625.954 516.085 601.6 521.281 576.471 525.159V482.66C601.6 478.783 625.954 473.587 648.989 466.995Z" fill="#8E2079"/>
<path d="M576.471 482.661V525.159C561.58 527.486 546.378 529.347 531.099 530.743V488.244C546.456 486.848 561.58 484.987 576.471 482.661Z" fill="#8E2079"/>
<path d="M531.099 488.245V530.743C520.396 531.752 509.615 532.45 498.835 532.992V490.494C509.615 489.951 520.396 489.175 531.099 488.245Z" fill="#8E2079"/>
<path d="M498.835 490.493V532.992C489.605 533.457 480.298 533.767 471.069 533.922V491.424C480.298 491.269 489.605 490.959 498.835 490.493Z" fill="#8E2079"/>
<path d="M471.068 491.424V533.922C466.88 534 462.77 534 458.581 534C454.238 534 449.895 534 445.474 533.922V491.424C449.817 491.502 454.16 491.502 458.581 491.502C462.77 491.502 466.88 491.424 471.068 491.424Z" fill="#8E2079"/>
<path d="M445.474 491.346V533.845C437.408 533.69 429.264 533.457 421.275 533.069V490.571C429.342 491.036 437.408 491.269 445.474 491.346Z" fill="#8E2079"/>
<path d="M421.275 490.649V533.148C413.442 532.76 405.686 532.294 397.93 531.752V489.253C405.686 489.796 413.442 490.261 421.275 490.649Z" fill="#8E2079"/>
<path d="M397.931 489.253V531.751C390.33 531.209 382.729 530.511 375.206 529.735V487.237C382.729 488.012 390.33 488.632 397.931 489.253Z" fill="#8E2079"/>
<path d="M375.206 487.158V529.657C367.682 528.881 360.159 527.951 352.791 526.943V484.444C360.159 485.53 367.605 486.383 375.206 487.158Z" fill="#8E2079"/>
<path d="M352.713 484.522V527.021C345.113 526.012 337.667 524.849 330.299 523.608V481.11C337.667 482.351 345.19 483.436 352.713 484.522Z" fill="#8E2079"/>
<path d="M330.298 481.109V523.608C322.62 522.29 315.097 520.894 307.651 519.343V476.844C315.097 478.395 322.62 479.791 330.298 481.109Z" fill="#8E2079"/>
<path d="M307.652 476.845V519.343C299.663 517.714 291.752 515.931 284.074 513.992V471.493C291.752 473.432 299.663 475.216 307.652 476.845Z" fill="#8E2079"/>
<path d="M284.074 471.493V513.992C275.465 511.82 267.011 509.494 258.789 507.012V464.514C267.011 466.995 275.465 469.322 284.074 471.493Z" fill="#8E2079"/>
<path d="M258.867 464.513V507.012C248.784 503.91 239.09 500.653 229.86 497.085V454.587C239.09 458.077 248.784 461.411 258.867 464.513Z" fill="#8E2079"/>
<path d="M229.782 454.508V497.006C213.727 490.802 198.991 483.9 185.884 476.3C164.788 464.047 150.982 452.569 140.279 438.222V395.723C150.982 409.993 164.788 421.548 185.884 433.801C198.991 441.479 213.805 448.381 229.782 454.508Z" fill="#8E2079"/>
<line x1="576.656" y1="237.987" x2="576.656" y2="51.6072" stroke="url(#paint0_linear)" stroke-width="2"/>
<circle cx="577.656" cy="237.987" r="6.65641" fill="white"/>
<path d="M603.413 51.85C600.713 51.85 598.043 52.99 595.763 54.85L597.173 57.58C598.943 55.96 601.073 54.94 602.903 54.94C605.093 54.94 606.413 55.96 606.413 57.64C606.413 58.84 605.393 60.55 603.863 62.11L596.123 70.42V73H611.063V69.82H600.803L606.263 64.03C608.483 61.63 610.103 59.26 610.103 57.13C610.103 53.92 607.373 51.85 603.413 51.85ZM622.79 51.91C617.03 51.91 613.85 55.69 613.85 62.5C613.85 69.31 617.03 73.09 622.79 73.09C628.52 73.09 631.7 69.31 631.7 62.5C631.7 55.69 628.52 51.91 622.79 51.91ZM622.79 54.7C626.3 54.7 628.07 57.16 628.07 62.5C628.07 67.81 626.3 70.3 622.79 70.3C619.25 70.3 617.48 67.81 617.48 62.5C617.48 57.16 619.25 54.7 622.79 54.7ZM639.842 51.94C636.392 51.94 634.292 54.28 634.292 58.18C634.292 62.11 636.392 64.48 639.842 64.48C643.292 64.48 645.392 62.11 645.392 58.18C645.392 54.28 643.292 51.94 639.842 51.94ZM638.252 73H641.582L657.002 52H653.702L638.252 73ZM639.842 53.98C641.912 53.98 643.112 55.51 643.112 58.18C643.112 60.88 641.912 62.44 639.842 62.44C637.772 62.44 636.602 60.88 636.602 58.18C636.602 55.51 637.772 53.98 639.842 53.98ZM655.652 60.55C652.202 60.55 650.102 62.89 650.102 66.79C650.102 70.72 652.202 73.06 655.652 73.06C659.102 73.06 661.202 70.72 661.202 66.79C661.202 62.89 659.102 60.55 655.652 60.55ZM655.652 62.56C657.722 62.56 658.922 64.12 658.922 66.79C658.922 69.49 657.722 71.02 655.652 71.02C653.582 71.02 652.412 69.49 652.412 66.79C652.412 64.12 653.582 62.56 655.652 62.56Z" fill="white"/>
<path d="M602.02 96V85.5H598.195V87.075H600.25V96H602.02ZM620.148 96V85.5H618.063L614.613 92.475L611.148 85.5H609.048V96H610.713V88.155L614.028 94.905H615.183L618.498 88.155L618.513 96H620.148ZM626.235 87.96C623.76 87.96 622.065 89.595 622.065 92.01C622.065 94.41 623.76 96.06 626.235 96.06C628.695 96.06 630.39 94.41 630.39 92.01C630.39 89.595 628.695 87.96 626.235 87.96ZM626.235 89.445C627.66 89.445 628.665 90.495 628.665 92.025C628.665 93.57 627.66 94.62 626.235 94.62C624.795 94.62 623.79 93.57 623.79 92.025C623.79 90.495 624.795 89.445 626.235 89.445ZM636.855 87.96C635.505 87.96 634.485 88.44 633.915 89.55V88.02H632.19V96H633.915V91.755C634.035 90.51 634.86 89.595 636.18 89.58C637.38 89.58 638.1 90.315 638.1 91.515V96H639.825V91.035C639.825 89.13 638.715 87.96 636.855 87.96ZM646.216 94.17C645.751 94.395 645.376 94.515 645.016 94.515C644.476 94.515 644.161 94.26 644.161 93.435V89.61H646.516V88.32H644.161V86.13H642.451V88.32H641.326V89.61H642.451V93.75C642.451 95.385 643.486 96.075 644.686 96.075C645.361 96.075 646.021 95.865 646.651 95.49L646.216 94.17ZM653 87.96C651.635 87.96 650.615 88.455 650.045 89.58V84.87H648.32V96H650.045V92.07C650.045 90.66 650.9 89.595 652.325 89.58C653.525 89.58 654.245 90.315 654.245 91.515V96H655.97V91.035C655.97 89.13 654.86 87.96 653 87.96ZM601.075 113V101.87H599.35V113H601.075ZM607.119 104.96C604.644 104.96 602.949 106.595 602.949 109.01C602.949 111.41 604.644 113.06 607.119 113.06C609.579 113.06 611.274 111.41 611.274 109.01C611.274 106.595 609.579 104.96 607.119 104.96ZM607.119 106.445C608.544 106.445 609.549 107.495 609.549 109.025C609.549 110.57 608.544 111.62 607.119 111.62C605.679 111.62 604.674 110.57 604.674 109.025C604.674 107.495 605.679 106.445 607.119 106.445ZM616.344 104.96C613.974 104.96 612.324 106.61 612.324 109.025C612.324 111.425 613.974 113.06 616.344 113.06C617.859 113.06 619.014 112.52 619.734 111.575L618.774 110.615C618.234 111.245 617.424 111.575 616.419 111.575C615.039 111.575 614.049 110.54 614.049 109.025C614.049 107.51 615.039 106.475 616.419 106.475C617.379 106.46 618.144 106.805 618.699 107.375L619.644 106.265C618.909 105.425 617.784 104.96 616.344 104.96ZM624.691 109.34L627.031 113H629.071L625.891 108.11L628.846 105.02H626.866L623.341 108.59V101.87H621.616V113H623.341V110.765L624.691 109.34ZM633.366 104.96C630.996 104.975 629.331 106.61 629.331 109.025C629.331 111.425 630.951 113.06 633.411 113.06C634.791 113.06 635.931 112.565 636.711 111.71L635.796 110.735C635.211 111.335 634.416 111.665 633.546 111.665C632.286 111.665 631.341 110.9 631.071 109.67H637.101C637.311 106.79 636.171 104.96 633.366 104.96ZM631.041 108.41C631.236 107.135 632.121 106.34 633.381 106.34C634.686 106.34 635.541 107.12 635.601 108.41H631.041ZM646.504 101.87H644.779V106.4C644.194 105.47 643.234 104.945 641.944 104.945C639.694 104.945 638.149 106.58 638.149 108.98C638.149 111.41 639.679 113.075 641.974 113.075C643.249 113.075 644.209 112.565 644.779 111.635V113H646.504V101.87ZM642.334 111.635C640.879 111.635 639.889 110.555 639.874 109.04C639.889 107.51 640.894 106.415 642.334 106.415C643.774 106.415 644.779 107.495 644.779 109.04C644.779 110.555 643.774 111.635 642.334 111.635ZM655.736 113V102.5H651.911V104.075H653.966V113H655.736ZM665.107 104.09L665.092 102.5H658.702V108.05C659.407 107.975 660.832 107.915 661.462 107.915C662.812 107.915 663.637 108.575 663.637 109.64C663.637 110.825 662.812 111.53 661.447 111.53C660.502 111.53 659.452 111.125 658.612 110.42L657.907 111.86C658.942 112.58 660.397 113.06 661.642 113.06C663.997 113.06 665.527 111.665 665.527 109.535C665.527 107.69 664.057 106.34 661.777 106.34L660.337 106.355V104.09H665.107ZM669.519 102.47C667.794 102.47 666.744 103.64 666.744 105.59C666.744 107.555 667.794 108.74 669.519 108.74C671.244 108.74 672.294 107.555 672.294 105.59C672.294 103.64 671.244 102.47 669.519 102.47ZM668.724 113H670.389L678.099 102.5H676.449L668.724 113ZM669.519 103.49C670.554 103.49 671.154 104.255 671.154 105.59C671.154 106.94 670.554 107.72 669.519 107.72C668.484 107.72 667.899 106.94 667.899 105.59C667.899 104.255 668.484 103.49 669.519 103.49ZM677.424 106.775C675.699 106.775 674.649 107.945 674.649 109.895C674.649 111.86 675.699 113.03 677.424 113.03C679.149 113.03 680.199 111.86 680.199 109.895C680.199 107.945 679.149 106.775 677.424 106.775ZM677.424 107.78C678.459 107.78 679.059 108.56 679.059 109.895C679.059 111.245 678.459 112.01 677.424 112.01C676.389 112.01 675.804 111.245 675.804 109.895C675.804 108.56 676.389 107.78 677.424 107.78ZM609.685 121.96C608.23 121.96 607.165 122.545 606.655 123.88C606.28 122.665 605.305 121.96 603.88 121.96C602.56 121.96 601.54 122.44 600.985 123.565V122.02H599.275V130H600.985V126.055C600.985 124.66 601.825 123.61 603.205 123.565C604.375 123.565 605.08 124.3 605.08 125.515V130H606.805V126.055C606.805 124.66 607.63 123.61 608.995 123.565C610.165 123.565 610.885 124.3 610.885 125.515V130H612.61V125.035C612.61 123.13 611.515 121.96 609.685 121.96ZM618.34 121.96C615.865 121.96 614.17 123.595 614.17 126.01C614.17 128.41 615.865 130.06 618.34 130.06C620.8 130.06 622.495 128.41 622.495 126.01C622.495 123.595 620.8 121.96 618.34 121.96ZM618.34 123.445C619.765 123.445 620.77 124.495 620.77 126.025C620.77 127.57 619.765 128.62 618.34 128.62C616.9 128.62 615.895 127.57 615.895 126.025C615.895 124.495 616.9 123.445 618.34 123.445ZM628.96 121.96C627.61 121.96 626.59 122.44 626.02 123.55V122.02H624.295V130H626.02V125.755C626.14 124.51 626.965 123.595 628.285 123.58C629.485 123.58 630.205 124.315 630.205 125.515V130H631.93V125.035C631.93 123.13 630.82 121.96 628.96 121.96ZM638.321 128.17C637.856 128.395 637.481 128.515 637.121 128.515C636.581 128.515 636.266 128.26 636.266 127.435V123.61H638.621V122.32H636.266V120.13H634.556V122.32H633.431V123.61H634.556V127.75C634.556 129.385 635.591 130.075 636.791 130.075C637.466 130.075 638.126 129.865 638.756 129.49L638.321 128.17ZM645.104 121.96C643.739 121.96 642.719 122.455 642.149 123.58V118.87H640.424V130H642.149V126.07C642.149 124.66 643.004 123.595 644.429 123.58C645.629 123.58 646.349 124.315 646.349 125.515V130H648.074V125.035C648.074 123.13 646.964 121.96 645.104 121.96ZM652.183 130V118.87H650.458V130H652.183ZM661.572 122.02H659.847L657.627 128.065L655.242 122.02H653.457L656.757 129.88L656.487 130.48C656.217 131.08 655.797 131.365 655.272 131.365C654.912 131.365 654.612 131.245 654.237 130.975L653.502 132.31C654.057 132.775 654.627 132.985 655.347 132.985C656.547 132.985 657.447 132.355 657.942 131.095L661.572 122.02Z" fill="#4C8BFA"/>
<line x1="741" y1="334" x2="741" y2="101" stroke="url(#paint1_linear)" stroke-width="2"/>
<circle cx="741.656" cy="333.987" r="6.65641" fill="white"/>
<path d="M769.5 98.85C763.95 98.85 760.44 103.23 760.44 109.92C760.44 116.37 763.68 120.15 768.99 120.15C773.46 120.15 776.37 117.45 776.37 113.1C776.37 109.02 773.82 106.41 769.62 106.41C766.98 106.41 765 107.43 763.89 109.38C763.77 104.85 765.66 101.79 769.74 101.79C771.33 101.79 773.1 102.27 774.39 103.11L775.77 100.44C774.06 99.48 771.57 98.85 769.5 98.85ZM768.96 109.2C771.51 109.2 773.07 110.67 773.07 113.07C773.07 115.62 771.36 117.09 768.81 117.09C765.78 117.09 764.43 115.02 764.46 113.19C764.43 111.03 766.11 109.2 768.96 109.2ZM780.727 116.31C779.647 116.31 778.837 117.12 778.837 118.26C778.837 119.43 779.647 120.27 780.727 120.27C781.807 120.27 782.617 119.43 782.617 118.26C782.617 117.12 781.807 116.31 780.727 116.31ZM788.67 111.69L795.48 99H792.06L784.89 112.2V114.84H794.91V120H798.21V114.84H801.27V111.69H798.21V106.71H794.91V111.69H788.67ZM808.639 98.94C805.189 98.94 803.089 101.28 803.089 105.18C803.089 109.11 805.189 111.48 808.639 111.48C812.089 111.48 814.189 109.11 814.189 105.18C814.189 101.28 812.089 98.94 808.639 98.94ZM807.049 120H810.379L825.799 99H822.499L807.049 120ZM808.639 100.98C810.709 100.98 811.909 102.51 811.909 105.18C811.909 107.88 810.709 109.44 808.639 109.44C806.569 109.44 805.399 107.88 805.399 105.18C805.399 102.51 806.569 100.98 808.639 100.98ZM824.449 107.55C820.999 107.55 818.899 109.89 818.899 113.79C818.899 117.72 820.999 120.06 824.449 120.06C827.899 120.06 829.999 117.72 829.999 113.79C829.999 109.89 827.899 107.55 824.449 107.55ZM824.449 109.56C826.519 109.56 827.719 111.12 827.719 113.79C827.719 116.49 826.519 118.02 824.449 118.02C822.379 118.02 821.209 116.49 821.209 113.79C821.209 111.12 822.379 109.56 824.449 109.56Z" fill="white"/>
<path d="M766.83 136.425C764.55 136.425 763.005 137.55 763.005 139.35C763.005 143.085 768.675 141.78 768.675 144.12C768.675 144.93 767.94 145.395 766.71 145.395C765.585 145.395 764.235 144.855 763.155 143.865L762.39 145.395C763.47 146.385 765.03 147.06 766.68 147.06C768.99 147.06 770.64 145.905 770.64 144.03C770.655 140.25 764.985 141.48 764.985 139.185C764.985 138.48 765.66 138.09 766.695 138.09C767.49 138.09 768.63 138.375 769.77 139.065L770.505 137.505C769.53 136.86 768.195 136.425 766.83 136.425ZM775.876 138.96C773.506 138.96 771.856 140.61 771.856 143.025C771.856 145.425 773.506 147.06 775.876 147.06C777.391 147.06 778.546 146.52 779.266 145.575L778.306 144.615C777.766 145.245 776.956 145.575 775.951 145.575C774.571 145.575 773.581 144.54 773.581 143.025C773.581 141.51 774.571 140.475 775.951 140.475C776.911 140.46 777.676 140.805 778.231 141.375L779.176 140.265C778.441 139.425 777.316 138.96 775.876 138.96ZM785.828 138.96C784.463 138.96 783.443 139.455 782.873 140.58V135.87H781.148V147H782.873V143.07C782.873 141.66 783.728 140.595 785.153 140.58C786.353 140.58 787.073 141.315 787.073 142.515V147H788.798V142.035C788.798 140.13 787.688 138.96 785.828 138.96ZM794.392 138.96C792.022 138.975 790.357 140.61 790.357 143.025C790.357 145.425 791.977 147.06 794.437 147.06C795.817 147.06 796.957 146.565 797.737 145.71L796.822 144.735C796.237 145.335 795.442 145.665 794.572 145.665C793.312 145.665 792.367 144.9 792.097 143.67H798.127C798.337 140.79 797.197 138.96 794.392 138.96ZM792.067 142.41C792.262 141.135 793.147 140.34 794.407 140.34C795.712 140.34 796.567 141.12 796.627 142.41H792.067ZM807.53 135.87H805.805V140.4C805.22 139.47 804.26 138.945 802.97 138.945C800.72 138.945 799.175 140.58 799.175 142.98C799.175 145.41 800.705 147.075 803 147.075C804.275 147.075 805.235 146.565 805.805 145.635V147H807.53V135.87ZM803.36 145.635C801.905 145.635 800.915 144.555 800.9 143.04C800.915 141.51 801.92 140.415 803.36 140.415C804.8 140.415 805.805 141.495 805.805 143.04C805.805 144.555 804.8 145.635 803.36 145.635ZM817.395 139.02H815.67V142.95C815.67 144.345 814.86 145.41 813.48 145.44C812.325 145.44 811.62 144.705 811.62 143.505V139.02H809.895V143.985C809.895 145.89 810.99 147.06 812.82 147.06C814.125 147.045 815.13 146.55 815.67 145.44V147H817.395V139.02ZM821.75 147V135.87H820.025V147H821.75ZM827.659 138.96C825.289 138.975 823.624 140.61 823.624 143.025C823.624 145.425 825.244 147.06 827.704 147.06C829.084 147.06 830.224 146.565 831.004 145.71L830.089 144.735C829.504 145.335 828.709 145.665 827.839 145.665C826.579 145.665 825.634 144.9 825.364 143.67H831.394C831.604 140.79 830.464 138.96 827.659 138.96ZM825.334 142.41C825.529 141.135 826.414 140.34 827.674 140.34C828.979 140.34 829.834 141.12 829.894 142.41H825.334ZM840.797 135.87H839.072V140.4C838.487 139.47 837.527 138.945 836.237 138.945C833.987 138.945 832.442 140.58 832.442 142.98C832.442 145.41 833.972 147.075 836.267 147.075C837.542 147.075 838.502 146.565 839.072 145.635V147H840.797V135.87ZM836.627 145.635C835.172 145.635 834.182 144.555 834.167 143.04C834.182 141.51 835.187 140.415 836.627 140.415C838.067 140.415 839.072 141.495 839.072 143.04C839.072 144.555 838.067 145.635 836.627 145.635ZM851.874 138.96C850.629 138.96 849.669 139.47 849.084 140.4V135.87H847.359V147H849.084V145.62C849.669 146.55 850.629 147.06 851.904 147.06C854.184 147.06 855.684 145.425 855.684 143.04C855.684 140.61 854.139 138.96 851.874 138.96ZM851.514 145.59C850.089 145.59 849.084 144.525 849.084 142.98C849.084 141.48 850.089 140.4 851.514 140.4C852.939 140.4 853.944 141.495 853.944 142.98C853.944 144.51 852.939 145.59 851.514 145.59ZM864.724 139.02H862.999V142.95C862.999 144.345 862.189 145.41 860.809 145.44C859.654 145.44 858.949 144.705 858.949 143.505V139.02H857.224V143.985C857.224 145.89 858.319 147.06 860.149 147.06C861.454 147.045 862.459 146.55 862.999 145.44V147H864.724V139.02ZM869.004 139.02H867.279V147H869.004V142.83C869.139 141.465 870.159 140.52 871.764 140.61V138.96C870.504 138.96 869.544 139.53 869.004 140.61V139.02ZM877.847 138.96C876.497 138.96 875.477 139.44 874.907 140.55V139.02H873.182V147H874.907V142.755C875.027 141.51 875.852 140.595 877.172 140.58C878.372 140.58 879.092 141.315 879.092 142.515V147H880.817V142.035C880.817 140.13 879.707 138.96 877.847 138.96Z" fill="#FFA568"/>
<line x1="773.656" y1="368.987" x2="773.656" y2="182.607" stroke="url(#paint2_linear)" stroke-width="2"/>
<circle cx="774.656" cy="368.987" r="6.65641" fill="white"/>
<path d="M799.813 204V183H792.163V186.15H796.273V204H799.813ZM806.644 200.31C805.564 200.31 804.754 201.12 804.754 202.26C804.754 203.43 805.564 204.27 806.644 204.27C807.724 204.27 808.534 203.43 808.534 202.26C808.534 201.12 807.724 200.31 806.644 200.31ZM820.408 182.85C814.858 182.85 811.348 187.23 811.348 193.92C811.348 200.37 814.588 204.15 819.898 204.15C824.368 204.15 827.278 201.45 827.278 197.1C827.278 193.02 824.728 190.41 820.528 190.41C817.888 190.41 815.908 191.43 814.798 193.38C814.678 188.85 816.568 185.79 820.648 185.79C822.238 185.79 824.008 186.27 825.298 187.11L826.678 184.44C824.968 183.48 822.478 182.85 820.408 182.85ZM819.868 193.2C822.418 193.2 823.978 194.67 823.978 197.07C823.978 199.62 822.268 201.09 819.718 201.09C816.688 201.09 815.338 199.02 815.368 197.19C815.338 195.03 817.018 193.2 819.868 193.2ZM835.055 182.94C831.605 182.94 829.505 185.28 829.505 189.18C829.505 193.11 831.605 195.48 835.055 195.48C838.505 195.48 840.605 193.11 840.605 189.18C840.605 185.28 838.505 182.94 835.055 182.94ZM833.465 204H836.795L852.215 183H848.915L833.465 204ZM835.055 184.98C837.125 184.98 838.325 186.51 838.325 189.18C838.325 191.88 837.125 193.44 835.055 193.44C832.985 193.44 831.815 191.88 831.815 189.18C831.815 186.51 832.985 184.98 835.055 184.98ZM850.865 191.55C847.415 191.55 845.315 193.89 845.315 197.79C845.315 201.72 847.415 204.06 850.865 204.06C854.315 204.06 856.415 201.72 856.415 197.79C856.415 193.89 854.315 191.55 850.865 191.55ZM850.865 193.56C852.935 193.56 854.135 195.12 854.135 197.79C854.135 200.49 852.935 202.02 850.865 202.02C848.795 202.02 847.625 200.49 847.625 197.79C847.625 195.12 848.795 193.56 850.865 193.56Z" fill="white"/>
<path d="M796.38 216.5V227H798.15V223.835H800.565C803.205 223.835 804.72 222.455 804.72 220.085C804.72 217.805 803.205 216.5 800.565 216.5H796.38ZM798.15 218.09H800.49C802.11 218.09 803.025 218.75 803.025 220.13C803.025 221.555 802.11 222.245 800.49 222.245H798.15V218.09ZM811.153 227H812.848L812.833 221.765C812.818 220.01 811.663 218.96 809.608 218.96C808.093 218.96 807.283 219.305 806.173 219.965L806.878 221.165C807.673 220.625 808.468 220.355 809.233 220.355C810.493 220.355 811.138 220.955 811.138 221.96V222.2H808.723C806.803 222.215 805.708 223.145 805.708 224.6C805.708 226.01 806.788 227.075 808.513 227.075C809.668 227.075 810.583 226.73 811.153 226.025V227ZM808.873 225.71C807.913 225.71 807.328 225.245 807.328 224.525C807.328 223.76 807.853 223.46 808.978 223.46H811.138V224.195C811.048 225.065 810.103 225.71 808.873 225.71ZM819.822 218.96C818.472 218.96 817.452 219.44 816.882 220.55V219.02H815.157V227H816.882V222.755C817.002 221.51 817.827 220.595 819.147 220.58C820.347 220.58 821.067 221.315 821.067 222.515V227H822.792V222.035C822.792 220.13 821.682 218.96 819.822 218.96ZM828.373 218.96C826.003 218.96 824.353 220.61 824.353 223.025C824.353 225.425 826.003 227.06 828.373 227.06C829.888 227.06 831.043 226.52 831.763 225.575L830.803 224.615C830.263 225.245 829.453 225.575 828.448 225.575C827.068 225.575 826.078 224.54 826.078 223.025C826.078 221.51 827.068 220.475 828.448 220.475C829.408 220.46 830.173 220.805 830.728 221.375L831.673 220.265C830.938 219.425 829.813 218.96 828.373 218.96ZM838.018 227H839.713L839.698 221.765C839.683 220.01 838.528 218.96 836.473 218.96C834.958 218.96 834.148 219.305 833.038 219.965L833.743 221.165C834.538 220.625 835.333 220.355 836.098 220.355C837.358 220.355 838.003 220.955 838.003 221.96V222.2H835.588C833.668 222.215 832.573 223.145 832.573 224.6C832.573 226.01 833.653 227.075 835.378 227.075C836.533 227.075 837.448 226.73 838.018 226.025V227ZM835.738 225.71C834.778 225.71 834.193 225.245 834.193 224.525C834.193 223.76 834.718 223.46 835.843 223.46H838.003V224.195C837.913 225.065 836.968 225.71 835.738 225.71ZM845.172 223.34L847.512 227H849.552L846.372 222.11L849.327 219.02H847.347L843.822 222.59V215.87H842.097V227H843.822V224.765L845.172 223.34ZM853.847 218.96C851.477 218.975 849.812 220.61 849.812 223.025C849.812 225.425 851.432 227.06 853.892 227.06C855.272 227.06 856.412 226.565 857.192 225.71L856.277 224.735C855.692 225.335 854.897 225.665 854.027 225.665C852.767 225.665 851.822 224.9 851.552 223.67H857.582C857.792 220.79 856.652 218.96 853.847 218.96ZM851.522 222.41C851.717 221.135 852.602 220.34 853.862 220.34C855.167 220.34 856.022 221.12 856.082 222.41H851.522ZM861.765 218.945C860.235 218.945 858.825 219.635 858.825 221.255C858.81 224.135 863.01 223.22 863.01 224.855C863.01 225.455 862.44 225.71 861.705 225.71C860.835 225.71 859.725 225.335 859.035 224.72L858.42 225.95C859.215 226.67 860.46 227.06 861.63 227.06C863.235 227.06 864.69 226.325 864.69 224.69C864.705 221.795 860.46 222.59 860.46 221.12C860.46 220.55 860.955 220.325 861.63 220.325C862.335 220.325 863.22 220.595 863.925 221.03L864.555 219.755C863.835 219.245 862.77 218.945 861.765 218.945ZM875.638 227L878.548 219.02H876.793L874.753 225.29L872.728 219.02H870.943L868.933 225.29L866.863 219.02H865.093L868.033 227H869.803L871.828 221.09L873.853 227H875.638ZM884.307 227H886.002L885.987 221.765C885.972 220.01 884.817 218.96 882.762 218.96C881.247 218.96 880.437 219.305 879.327 219.965L880.032 221.165C880.827 220.625 881.622 220.355 882.387 220.355C883.647 220.355 884.292 220.955 884.292 221.96V222.2H881.877C879.957 222.215 878.862 223.145 878.862 224.6C878.862 226.01 879.942 227.075 881.667 227.075C882.822 227.075 883.737 226.73 884.307 226.025V227ZM882.027 225.71C881.067 225.71 880.482 225.245 880.482 224.525C880.482 223.76 881.007 223.46 882.132 223.46H884.292V224.195C884.202 225.065 883.257 225.71 882.027 225.71ZM892.901 218.96C891.656 218.96 890.696 219.47 890.111 220.4V219.02H888.386V229.91H890.111V225.62C890.696 226.55 891.656 227.06 892.931 227.06C895.211 227.06 896.711 225.425 896.711 223.04C896.711 220.61 895.166 218.96 892.901 218.96ZM892.541 225.59C891.116 225.59 890.111 224.525 890.111 222.98C890.111 221.48 891.116 220.4 892.541 220.4C893.966 220.4 894.971 221.495 894.971 222.98C894.971 224.51 893.966 225.59 892.541 225.59ZM904.249 225.395V216.5H902.479V227H908.794V225.395H904.249ZM911.241 215.69C910.671 215.69 910.236 216.125 910.236 216.74C910.236 217.34 910.671 217.775 911.241 217.775C911.811 217.775 912.246 217.34 912.246 216.74C912.246 216.125 911.811 215.69 911.241 215.69ZM912.096 227V219.02H910.386V227H912.096ZM922.254 219.02H920.529V220.4C919.944 219.47 918.984 218.945 917.694 218.945C915.444 218.945 913.899 220.58 913.899 222.98C913.899 225.41 915.429 227.075 917.724 227.075C918.999 227.075 919.959 226.565 920.529 225.635V229.91H922.254V219.02ZM918.084 225.635C916.629 225.635 915.639 224.555 915.624 223.04C915.639 221.51 916.644 220.415 918.084 220.415C919.524 220.415 920.529 221.495 920.529 223.04C920.529 224.555 919.524 225.635 918.084 225.635ZM932.119 219.02H930.394V222.95C930.394 224.345 929.584 225.41 928.204 225.44C927.049 225.44 926.344 224.705 926.344 223.505V219.02H924.619V223.985C924.619 225.89 925.714 227.06 927.544 227.06C928.849 227.045 929.854 226.55 930.394 225.44V227H932.119V219.02ZM935.528 215.69C934.958 215.69 934.523 216.125 934.523 216.74C934.523 217.34 934.958 217.775 935.528 217.775C936.098 217.775 936.533 217.34 936.533 216.74C936.533 216.125 936.098 215.69 935.528 215.69ZM936.383 227V219.02H934.673V227H936.383ZM946.541 215.87H944.816V220.4C944.231 219.47 943.271 218.945 941.981 218.945C939.731 218.945 938.186 220.58 938.186 222.98C938.186 225.41 939.716 227.075 942.011 227.075C943.286 227.075 944.246 226.565 944.816 225.635V227H946.541V215.87ZM942.371 225.635C940.916 225.635 939.926 224.555 939.911 223.04C939.926 221.51 940.931 220.415 942.371 220.415C943.811 220.415 944.816 221.495 944.816 223.04C944.816 224.555 943.811 225.635 942.371 225.635ZM950.016 215.69C949.446 215.69 949.011 216.125 949.011 216.74C949.011 217.34 949.446 217.775 950.016 217.775C950.586 217.775 951.021 217.34 951.021 216.74C951.021 216.125 950.586 215.69 950.016 215.69ZM950.871 227V219.02H949.161V227H950.871ZM957.503 225.17C957.038 225.395 956.663 225.515 956.303 225.515C955.763 225.515 955.448 225.26 955.448 224.435V220.61H957.803V219.32H955.448V217.13H953.738V219.32H952.613V220.61H953.738V224.75C953.738 226.385 954.773 227.075 955.973 227.075C956.648 227.075 957.308 226.865 957.938 226.49L957.503 225.17ZM966.297 219.02H964.572L962.352 225.065L959.967 219.02H958.182L961.482 226.88L961.212 227.48C960.942 228.08 960.522 228.365 959.997 228.365C959.637 228.365 959.337 228.245 958.962 227.975L958.227 229.31C958.782 229.775 959.352 229.985 960.072 229.985C961.272 229.985 962.172 229.355 962.667 228.095L966.297 219.02Z" fill="#AFFF79"/>
<line x1="744.656" y1="446.656" x2="744.656" y2="633.036" stroke="url(#paint3_linear)" stroke-width="2"/>
<circle cx="743.656" cy="446.656" r="6.65641" transform="rotate(-180 743.656 446.656)" fill="white"/>
<path d="M765.38 585V606H763.22V586.92H758.27V585H765.38ZM778.77 606.18C777.15 606.18 775.7 605.75 774.42 604.89C773.16 604.03 772.17 602.8 771.45 601.2C770.75 599.58 770.4 597.68 770.4 595.5C770.4 593.32 770.75 591.43 771.45 589.83C772.17 588.21 773.16 586.97 774.42 586.11C775.7 585.25 777.15 584.82 778.77 584.82C780.39 584.82 781.83 585.25 783.09 586.11C784.37 586.97 785.37 588.21 786.09 589.83C786.81 591.43 787.17 593.32 787.17 595.5C787.17 597.68 786.81 599.58 786.09 601.2C785.37 602.8 784.37 604.03 783.09 604.89C781.83 605.75 780.39 606.18 778.77 606.18ZM778.77 604.2C779.99 604.2 781.06 603.86 781.98 603.18C782.92 602.5 783.65 601.51 784.17 600.21C784.69 598.91 784.95 597.34 784.95 595.5C784.95 593.66 784.69 592.09 784.17 590.79C783.65 589.49 782.92 588.5 781.98 587.82C781.06 587.14 779.99 586.8 778.77 586.8C777.55 586.8 776.47 587.14 775.53 587.82C774.61 588.5 773.89 589.49 773.37 590.79C772.85 592.09 772.59 593.66 772.59 595.5C772.59 597.34 772.85 598.91 773.37 600.21C773.89 601.51 774.61 602.5 775.53 603.18C776.47 603.86 777.55 604.2 778.77 604.2ZM794.703 596.25C793.283 596.25 792.133 595.73 791.253 594.69C790.393 593.63 789.963 592.25 789.963 590.55C789.963 588.85 790.393 587.48 791.253 586.44C792.133 585.38 793.283 584.85 794.703 584.85C796.103 584.85 797.243 585.37 798.123 586.41C799.003 587.45 799.443 588.83 799.443 590.55C799.443 592.27 799.003 593.65 798.123 594.69C797.243 595.73 796.103 596.25 794.703 596.25ZM807.423 585H809.193L794.853 606H793.083L807.423 585ZM794.703 594.9C795.683 594.9 796.463 594.52 797.043 593.76C797.643 592.98 797.943 591.91 797.943 590.55C797.943 589.19 797.643 588.13 797.043 587.37C796.463 586.59 795.683 586.2 794.703 586.2C793.703 586.2 792.913 586.59 792.333 587.37C791.753 588.15 791.463 589.21 791.463 590.55C791.463 591.89 791.753 592.95 792.333 593.73C792.913 594.51 793.703 594.9 794.703 594.9ZM807.573 606.15C806.173 606.15 805.033 605.63 804.153 604.59C803.273 603.53 802.833 602.15 802.833 600.45C802.833 598.75 803.273 597.38 804.153 596.34C805.033 595.28 806.173 594.75 807.573 594.75C808.993 594.75 810.133 595.28 810.993 596.34C811.873 597.38 812.313 598.75 812.313 600.45C812.313 602.15 811.873 603.53 810.993 604.59C810.133 605.63 808.993 606.15 807.573 606.15ZM807.573 604.8C808.573 604.8 809.363 604.41 809.943 603.63C810.523 602.85 810.813 601.79 810.813 600.45C810.813 599.11 810.523 598.05 809.943 597.27C809.363 596.49 808.573 596.1 807.573 596.1C806.593 596.1 805.803 596.49 805.203 597.27C804.623 598.03 804.333 599.09 804.333 600.45C804.333 601.81 804.623 602.88 805.203 603.66C805.803 604.42 806.593 604.8 807.573 604.8Z" fill="white"/>
<path d="M768.59 621.09L768.575 619.5H762.185V625.05C762.89 624.975 764.315 624.915 764.945 624.915C766.295 624.915 767.12 625.575 767.12 626.64C767.12 627.825 766.295 628.53 764.93 628.53C763.985 628.53 762.935 628.125 762.095 627.42L761.39 628.86C762.425 629.58 763.88 630.06 765.125 630.06C767.48 630.06 769.01 628.665 769.01 626.535C769.01 624.69 767.54 623.34 765.26 623.34L763.82 623.355V621.09H768.59ZM786.004 630V619.5H783.919L780.469 626.475L777.004 619.5H774.904V630H776.569V622.155L779.884 628.905H781.039L784.354 622.155L784.369 630H786.004ZM792.091 621.96C789.616 621.96 787.921 623.595 787.921 626.01C787.921 628.41 789.616 630.06 792.091 630.06C794.551 630.06 796.246 628.41 796.246 626.01C796.246 623.595 794.551 621.96 792.091 621.96ZM792.091 623.445C793.516 623.445 794.521 624.495 794.521 626.025C794.521 627.57 793.516 628.62 792.091 628.62C790.651 628.62 789.646 627.57 789.646 626.025C789.646 624.495 790.651 623.445 792.091 623.445ZM802.711 621.96C801.361 621.96 800.341 622.44 799.771 623.55V622.02H798.046V630H799.771V625.755C799.891 624.51 800.716 623.595 802.036 623.58C803.236 623.58 803.956 624.315 803.956 625.515V630H805.681V625.035C805.681 623.13 804.571 621.96 802.711 621.96ZM812.073 628.17C811.608 628.395 811.233 628.515 810.873 628.515C810.333 628.515 810.018 628.26 810.018 627.435V623.61H812.373V622.32H810.018V620.13H808.308V622.32H807.183V623.61H808.308V627.75C808.308 629.385 809.343 630.075 810.543 630.075C811.218 630.075 811.878 629.865 812.508 629.49L812.073 628.17ZM818.856 621.96C817.491 621.96 816.471 622.455 815.901 623.58V618.87H814.176V630H815.901V626.07C815.901 624.66 816.756 623.595 818.181 623.58C819.381 623.58 820.101 624.315 820.101 625.515V630H821.826V625.035C821.826 623.13 820.716 621.96 818.856 621.96ZM826.52 621.945C824.99 621.945 823.58 622.635 823.58 624.255C823.565 627.135 827.765 626.22 827.765 627.855C827.765 628.455 827.195 628.71 826.46 628.71C825.59 628.71 824.48 628.335 823.79 627.72L823.175 628.95C823.97 629.67 825.215 630.06 826.385 630.06C827.99 630.06 829.445 629.325 829.445 627.69C829.46 624.795 825.215 625.59 825.215 624.12C825.215 623.55 825.71 623.325 826.385 623.325C827.09 623.325 827.975 623.595 828.68 624.03L829.31 622.755C828.59 622.245 827.525 621.945 826.52 621.945ZM836.923 628.395V619.5H835.153V630H841.468V628.395H836.923ZM846.481 621.96C844.006 621.96 842.311 623.595 842.311 626.01C842.311 628.41 844.006 630.06 846.481 630.06C848.941 630.06 850.636 628.41 850.636 626.01C850.636 623.595 848.941 621.96 846.481 621.96ZM846.481 623.445C847.906 623.445 848.911 624.495 848.911 626.025C848.911 627.57 847.906 628.62 846.481 628.62C845.041 628.62 844.036 627.57 844.036 626.025C844.036 624.495 845.041 623.445 846.481 623.445ZM855.706 621.96C853.336 621.96 851.686 623.61 851.686 626.025C851.686 628.425 853.336 630.06 855.706 630.06C857.221 630.06 858.376 629.52 859.096 628.575L858.136 627.615C857.596 628.245 856.786 628.575 855.781 628.575C854.401 628.575 853.411 627.54 853.411 626.025C853.411 624.51 854.401 623.475 855.781 623.475C856.741 623.46 857.506 623.805 858.061 624.375L859.006 623.265C858.271 622.425 857.146 621.96 855.706 621.96ZM864.053 626.34L866.393 630H868.433L865.253 625.11L868.208 622.02H866.228L862.703 625.59V618.87H860.978V630H862.703V627.765L864.053 626.34ZM872.728 621.96C870.358 621.975 868.693 623.61 868.693 626.025C868.693 628.425 870.313 630.06 872.773 630.06C874.153 630.06 875.293 629.565 876.073 628.71L875.158 627.735C874.573 628.335 873.778 628.665 872.908 628.665C871.648 628.665 870.703 627.9 870.433 626.67H876.463C876.673 623.79 875.533 621.96 872.728 621.96ZM870.403 625.41C870.598 624.135 871.483 623.34 872.743 623.34C874.048 623.34 874.903 624.12 874.963 625.41H870.403ZM885.866 618.87H884.141V623.4C883.556 622.47 882.596 621.945 881.306 621.945C879.056 621.945 877.511 623.58 877.511 625.98C877.511 628.41 879.041 630.075 881.336 630.075C882.611 630.075 883.571 629.565 884.141 628.635V630H885.866V618.87ZM881.696 628.635C880.241 628.635 879.251 627.555 879.236 626.04C879.251 624.51 880.256 623.415 881.696 623.415C883.136 623.415 884.141 624.495 884.141 626.04C884.141 627.555 883.136 628.635 881.696 628.635Z" fill="#6FF4FF"/>
<line x1="677" y1="484" x2="677" y2="712" stroke="url(#paint4_linear)" stroke-width="2"/>
<circle cx="675.656" cy="483.656" r="6.65641" transform="rotate(-180 675.656 483.656)" fill="white"/>
<path d="M698.64 667.85C695.94 667.85 693.27 668.99 690.99 670.85L692.4 673.58C694.17 671.96 696.3 670.94 698.13 670.94C700.32 670.94 701.64 671.96 701.64 673.64C701.64 674.84 700.62 676.55 699.09 678.11L691.35 686.42V689H706.29V685.82H696.03L701.49 680.03C703.71 677.63 705.33 675.26 705.33 673.13C705.33 669.92 702.6 667.85 698.64 667.85ZM710.907 685.31C709.827 685.31 709.017 686.12 709.017 687.26C709.017 688.43 709.827 689.27 710.907 689.27C711.987 689.27 712.797 688.43 712.797 687.26C712.797 686.12 711.987 685.31 710.907 685.31ZM729.35 671.18L729.32 668H716.54V679.1C717.95 678.95 720.8 678.83 722.06 678.83C724.76 678.83 726.41 680.15 726.41 682.28C726.41 684.65 724.76 686.06 722.03 686.06C720.14 686.06 718.04 685.25 716.36 683.84L714.95 686.72C717.02 688.16 719.93 689.12 722.42 689.12C727.13 689.12 730.19 686.33 730.19 682.07C730.19 678.38 727.25 675.68 722.69 675.68L719.81 675.71V671.18H729.35ZM738.174 667.94C734.724 667.94 732.624 670.28 732.624 674.18C732.624 678.11 734.724 680.48 738.174 680.48C741.624 680.48 743.724 678.11 743.724 674.18C743.724 670.28 741.624 667.94 738.174 667.94ZM736.584 689H739.914L755.334 668H752.034L736.584 689ZM738.174 669.98C740.244 669.98 741.444 671.51 741.444 674.18C741.444 676.88 740.244 678.44 738.174 678.44C736.104 678.44 734.934 676.88 734.934 674.18C734.934 671.51 736.104 669.98 738.174 669.98ZM753.984 676.55C750.534 676.55 748.434 678.89 748.434 682.79C748.434 686.72 750.534 689.06 753.984 689.06C757.434 689.06 759.534 686.72 759.534 682.79C759.534 678.89 757.434 676.55 753.984 676.55ZM753.984 678.56C756.054 678.56 757.254 680.12 757.254 682.79C757.254 685.49 756.054 687.02 753.984 687.02C751.914 687.02 750.744 685.49 750.744 682.79C750.744 680.12 751.914 678.56 753.984 678.56Z" fill="white"/>
<path d="M696.93 705.865L699.93 702.625V701.515H693.54V703.09H697.74L695.01 706.03V707.065H696.465C697.86 707.065 698.685 707.65 698.685 708.79C698.685 709.87 697.875 710.59 696.48 710.59C695.52 710.59 694.545 710.2 693.795 709.495L693.06 710.935C693.96 711.625 695.31 712.075 696.6 712.075C698.94 712.075 700.425 710.71 700.425 708.745C700.425 707.095 699.225 706.075 697.47 705.925L696.93 705.865ZM717.433 712V701.5H715.348L711.898 708.475L708.433 701.5H706.333V712H707.998V704.155L711.313 710.905H712.468L715.783 704.155L715.798 712H717.433ZM723.52 703.96C721.045 703.96 719.35 705.595 719.35 708.01C719.35 710.41 721.045 712.06 723.52 712.06C725.98 712.06 727.675 710.41 727.675 708.01C727.675 705.595 725.98 703.96 723.52 703.96ZM723.52 705.445C724.945 705.445 725.95 706.495 725.95 708.025C725.95 709.57 724.945 710.62 723.52 710.62C722.08 710.62 721.075 709.57 721.075 708.025C721.075 706.495 722.08 705.445 723.52 705.445ZM734.14 703.96C732.79 703.96 731.77 704.44 731.2 705.55V704.02H729.475V712H731.2V707.755C731.32 706.51 732.145 705.595 733.465 705.58C734.665 705.58 735.385 706.315 735.385 707.515V712H737.11V707.035C737.11 705.13 736 703.96 734.14 703.96ZM743.501 710.17C743.036 710.395 742.661 710.515 742.301 710.515C741.761 710.515 741.446 710.26 741.446 709.435V705.61H743.801V704.32H741.446V702.13H739.736V704.32H738.611V705.61H739.736V709.75C739.736 711.385 740.771 712.075 741.971 712.075C742.646 712.075 743.306 711.865 743.936 711.49L743.501 710.17ZM750.285 703.96C748.92 703.96 747.9 704.455 747.33 705.58V700.87H745.605V712H747.33V708.07C747.33 706.66 748.185 705.595 749.61 705.58C750.81 705.58 751.53 706.315 751.53 707.515V712H753.255V707.035C753.255 705.13 752.145 703.96 750.285 703.96ZM757.949 703.945C756.419 703.945 755.009 704.635 755.009 706.255C754.994 709.135 759.194 708.22 759.194 709.855C759.194 710.455 758.624 710.71 757.889 710.71C757.019 710.71 755.909 710.335 755.219 709.72L754.604 710.95C755.399 711.67 756.644 712.06 757.814 712.06C759.419 712.06 760.874 711.325 760.874 709.69C760.889 706.795 756.644 707.59 756.644 706.12C756.644 705.55 757.139 705.325 757.814 705.325C758.519 705.325 759.404 705.595 760.109 706.03L760.739 704.755C760.019 704.245 758.954 703.945 757.949 703.945ZM768.352 710.395V701.5H766.582V712H772.897V710.395H768.352ZM777.91 703.96C775.435 703.96 773.74 705.595 773.74 708.01C773.74 710.41 775.435 712.06 777.91 712.06C780.37 712.06 782.065 710.41 782.065 708.01C782.065 705.595 780.37 703.96 777.91 703.96ZM777.91 705.445C779.335 705.445 780.34 706.495 780.34 708.025C780.34 709.57 779.335 710.62 777.91 710.62C776.47 710.62 775.465 709.57 775.465 708.025C775.465 706.495 776.47 705.445 777.91 705.445ZM787.135 703.96C784.765 703.96 783.115 705.61 783.115 708.025C783.115 710.425 784.765 712.06 787.135 712.06C788.65 712.06 789.805 711.52 790.525 710.575L789.565 709.615C789.025 710.245 788.215 710.575 787.21 710.575C785.83 710.575 784.84 709.54 784.84 708.025C784.84 706.51 785.83 705.475 787.21 705.475C788.17 705.46 788.935 705.805 789.49 706.375L790.435 705.265C789.7 704.425 788.575 703.96 787.135 703.96ZM795.482 708.34L797.822 712H799.862L796.682 707.11L799.637 704.02H797.657L794.132 707.59V700.87H792.407V712H794.132V709.765L795.482 708.34ZM804.157 703.96C801.787 703.975 800.122 705.61 800.122 708.025C800.122 710.425 801.742 712.06 804.202 712.06C805.582 712.06 806.722 711.565 807.502 710.71L806.587 709.735C806.002 710.335 805.207 710.665 804.337 710.665C803.077 710.665 802.132 709.9 801.862 708.67H807.892C808.102 705.79 806.962 703.96 804.157 703.96ZM801.832 707.41C802.027 706.135 802.912 705.34 804.172 705.34C805.477 705.34 806.332 706.12 806.392 707.41H801.832ZM817.295 700.87H815.57V705.4C814.985 704.47 814.025 703.945 812.735 703.945C810.485 703.945 808.94 705.58 808.94 707.98C808.94 710.41 810.47 712.075 812.765 712.075C814.04 712.075 815 711.565 815.57 710.635V712H817.295V700.87ZM813.125 710.635C811.67 710.635 810.68 709.555 810.665 708.04C810.68 706.51 811.685 705.415 813.125 705.415C814.565 705.415 815.57 706.495 815.57 708.04C815.57 709.555 814.565 710.635 813.125 710.635Z" fill="#FFDF7E"/>
<line x1="356" y1="504" x2="356" y2="732" stroke="url(#paint5_linear)" stroke-width="2"/>
<circle cx="354.656" cy="503.656" r="6.65641" transform="rotate(-180 354.656 503.656)" fill="white"/>
<path d="M376.86 696.73L382.86 690.25V688.03H370.08V691.18H378.48L373.02 697.06V699.13H375.93C378.72 699.13 380.37 700.3 380.37 702.58C380.37 704.74 378.75 706.18 375.96 706.18C374.04 706.18 372.09 705.4 370.59 703.99L369.12 706.87C370.92 708.25 373.62 709.15 376.2 709.15C380.88 709.15 383.85 706.42 383.85 702.49C383.85 699.19 381.45 697.15 377.94 696.85L376.86 696.73ZM395.552 687.91C389.792 687.91 386.612 691.69 386.612 698.5C386.612 705.31 389.792 709.09 395.552 709.09C401.282 709.09 404.462 705.31 404.462 698.5C404.462 691.69 401.282 687.91 395.552 687.91ZM395.552 690.7C399.062 690.7 400.832 693.16 400.832 698.5C400.832 703.81 399.062 706.3 395.552 706.3C392.012 706.3 390.242 703.81 390.242 698.5C390.242 693.16 392.012 690.7 395.552 690.7ZM412.604 687.94C409.154 687.94 407.054 690.28 407.054 694.18C407.054 698.11 409.154 700.48 412.604 700.48C416.054 700.48 418.154 698.11 418.154 694.18C418.154 690.28 416.054 687.94 412.604 687.94ZM411.014 709H414.344L429.764 688H426.464L411.014 709ZM412.604 689.98C414.674 689.98 415.874 691.51 415.874 694.18C415.874 696.88 414.674 698.44 412.604 698.44C410.534 698.44 409.364 696.88 409.364 694.18C409.364 691.51 410.534 689.98 412.604 689.98ZM428.414 696.55C424.964 696.55 422.864 698.89 422.864 702.79C422.864 706.72 424.964 709.06 428.414 709.06C431.864 709.06 433.964 706.72 433.964 702.79C433.964 698.89 431.864 696.55 428.414 696.55ZM428.414 698.56C430.484 698.56 431.684 700.12 431.684 702.79C431.684 705.49 430.484 707.02 428.414 707.02C426.344 707.02 425.174 705.49 425.174 702.79C425.174 700.12 426.344 698.56 428.414 698.56Z" fill="white"/>
<path d="M375.93 725.865L378.93 722.625V721.515H372.54V723.09H376.74L374.01 726.03V727.065H375.465C376.86 727.065 377.685 727.65 377.685 728.79C377.685 729.87 376.875 730.59 375.48 730.59C374.52 730.59 373.545 730.2 372.795 729.495L372.06 730.935C372.96 731.625 374.31 732.075 375.6 732.075C377.94 732.075 379.425 730.71 379.425 728.745C379.425 727.095 378.225 726.075 376.47 725.925L375.93 725.865ZM383.431 721.47C381.706 721.47 380.656 722.64 380.656 724.59C380.656 726.555 381.706 727.74 383.431 727.74C385.156 727.74 386.206 726.555 386.206 724.59C386.206 722.64 385.156 721.47 383.431 721.47ZM382.636 732H384.301L392.011 721.5H390.361L382.636 732ZM383.431 722.49C384.466 722.49 385.066 723.255 385.066 724.59C385.066 725.94 384.466 726.72 383.431 726.72C382.396 726.72 381.811 725.94 381.811 724.59C381.811 723.255 382.396 722.49 383.431 722.49ZM391.336 725.775C389.611 725.775 388.561 726.945 388.561 728.895C388.561 730.86 389.611 732.03 391.336 732.03C393.061 732.03 394.111 730.86 394.111 728.895C394.111 726.945 393.061 725.775 391.336 725.775ZM391.336 726.78C392.371 726.78 392.971 727.56 392.971 728.895C392.971 730.245 392.371 731.01 391.336 731.01C390.301 731.01 389.716 730.245 389.716 728.895C389.716 727.56 390.301 726.78 391.336 726.78ZM411.023 732V721.5H408.938L405.488 728.475L402.023 721.5H399.923V732H401.588V724.155L404.903 730.905H406.058L409.373 724.155L409.388 732H411.023ZM417.11 723.96C414.635 723.96 412.94 725.595 412.94 728.01C412.94 730.41 414.635 732.06 417.11 732.06C419.57 732.06 421.265 730.41 421.265 728.01C421.265 725.595 419.57 723.96 417.11 723.96ZM417.11 725.445C418.535 725.445 419.54 726.495 419.54 728.025C419.54 729.57 418.535 730.62 417.11 730.62C415.67 730.62 414.665 729.57 414.665 728.025C414.665 726.495 415.67 725.445 417.11 725.445ZM427.73 723.96C426.38 723.96 425.36 724.44 424.79 725.55V724.02H423.065V732H424.79V727.755C424.91 726.51 425.735 725.595 427.055 725.58C428.255 725.58 428.975 726.315 428.975 727.515V732H430.7V727.035C430.7 725.13 429.59 723.96 427.73 723.96ZM437.091 730.17C436.626 730.395 436.251 730.515 435.891 730.515C435.351 730.515 435.036 730.26 435.036 729.435V725.61H437.391V724.32H435.036V722.13H433.326V724.32H432.201V725.61H433.326V729.75C433.326 731.385 434.361 732.075 435.561 732.075C436.236 732.075 436.896 731.865 437.526 731.49L437.091 730.17ZM443.875 723.96C442.51 723.96 441.49 724.455 440.92 725.58V720.87H439.195V732H440.92V728.07C440.92 726.66 441.775 725.595 443.2 725.58C444.4 725.58 445.12 726.315 445.12 727.515V732H446.845V727.035C446.845 725.13 445.735 723.96 443.875 723.96ZM450.954 732V720.87H449.229V732H450.954ZM460.343 724.02H458.618L456.398 730.065L454.013 724.02H452.228L455.528 731.88L455.258 732.48C454.988 733.08 454.568 733.365 454.043 733.365C453.683 733.365 453.383 733.245 453.008 732.975L452.273 734.31C452.828 734.775 453.398 734.985 454.118 734.985C455.318 734.985 456.218 734.355 456.713 733.095L460.343 724.02ZM473.019 723.09V721.5H465.519V732H473.199V730.41H467.289V727.515H472.419V725.925H467.289V723.09H473.019ZM485.667 723.96C484.212 723.96 483.147 724.545 482.637 725.88C482.262 724.665 481.287 723.96 479.862 723.96C478.542 723.96 477.522 724.44 476.967 725.565V724.02H475.257V732H476.967V728.055C476.967 726.66 477.807 725.61 479.187 725.565C480.357 725.565 481.062 726.3 481.062 727.515V732H482.787V728.055C482.787 726.66 483.612 725.61 484.977 725.565C486.147 725.565 486.867 726.3 486.867 727.515V732H488.592V727.035C488.592 725.13 487.497 723.96 485.667 723.96ZM491.757 720.69C491.187 720.69 490.752 721.125 490.752 721.74C490.752 722.34 491.187 722.775 491.757 722.775C492.327 722.775 492.762 722.34 492.762 721.74C492.762 721.125 492.327 720.69 491.757 720.69ZM492.612 732V724.02H490.902V732H492.612ZM497.55 723.945C496.02 723.945 494.61 724.635 494.61 726.255C494.595 729.135 498.795 728.22 498.795 729.855C498.795 730.455 498.225 730.71 497.49 730.71C496.62 730.71 495.51 730.335 494.82 729.72L494.205 730.95C495 731.67 496.245 732.06 497.415 732.06C499.02 732.06 500.475 731.325 500.475 729.69C500.49 726.795 496.245 727.59 496.245 726.12C496.245 725.55 496.74 725.325 497.415 725.325C498.12 725.325 499.005 725.595 499.71 726.03L500.34 724.755C499.62 724.245 498.555 723.945 497.55 723.945ZM504.596 723.945C503.066 723.945 501.656 724.635 501.656 726.255C501.641 729.135 505.841 728.22 505.841 729.855C505.841 730.455 505.271 730.71 504.536 730.71C503.666 730.71 502.556 730.335 501.866 729.72L501.251 730.95C502.046 731.67 503.291 732.06 504.461 732.06C506.066 732.06 507.521 731.325 507.521 729.69C507.536 726.795 503.291 727.59 503.291 726.12C503.291 725.55 503.786 725.325 504.461 725.325C505.166 725.325 506.051 725.595 506.756 726.03L507.386 724.755C506.666 724.245 505.601 723.945 504.596 723.945ZM510.111 720.69C509.541 720.69 509.106 721.125 509.106 721.74C509.106 722.34 509.541 722.775 510.111 722.775C510.681 722.775 511.116 722.34 511.116 721.74C511.116 721.125 510.681 720.69 510.111 720.69ZM510.966 732V724.02H509.256V732H510.966ZM516.939 723.96C514.464 723.96 512.769 725.595 512.769 728.01C512.769 730.41 514.464 732.06 516.939 732.06C519.399 732.06 521.094 730.41 521.094 728.01C521.094 725.595 519.399 723.96 516.939 723.96ZM516.939 725.445C518.364 725.445 519.369 726.495 519.369 728.025C519.369 729.57 518.364 730.62 516.939 730.62C515.499 730.62 514.494 729.57 514.494 728.025C514.494 726.495 515.499 725.445 516.939 725.445ZM527.559 723.96C526.209 723.96 525.189 724.44 524.619 725.55V724.02H522.894V732H524.619V727.755C524.739 726.51 525.564 725.595 526.884 725.58C528.084 725.58 528.804 726.315 528.804 727.515V732H530.529V727.035C530.529 725.13 529.419 723.96 527.559 723.96Z" fill="#FF6FD9"/>
<line x1="146" y1="358" x2="146" y2="171" stroke="url(#paint6_linear)" stroke-width="2"/>
<circle r="6.65641" transform="matrix(-1 0 0 1 146.656 358.344)" fill="white"/>
<path d="M78.8045 194V173H71.1545V176.15H75.2645V194H78.8045ZM92.746 172.91C86.986 172.91 83.806 176.69 83.806 183.5C83.806 190.31 86.986 194.09 92.746 194.09C98.476 194.09 101.656 190.31 101.656 183.5C101.656 176.69 98.476 172.91 92.746 172.91ZM92.746 175.7C96.256 175.7 98.026 178.16 98.026 183.5C98.026 188.81 96.256 191.3 92.746 191.3C89.206 191.3 87.436 188.81 87.436 183.5C87.436 178.16 89.206 175.7 92.746 175.7ZM109.798 172.94C106.348 172.94 104.248 175.28 104.248 179.18C104.248 183.11 106.348 185.48 109.798 185.48C113.248 185.48 115.348 183.11 115.348 179.18C115.348 175.28 113.248 172.94 109.798 172.94ZM108.208 194H111.538L126.958 173H123.658L108.208 194ZM109.798 174.98C111.868 174.98 113.068 176.51 113.068 179.18C113.068 181.88 111.868 183.44 109.798 183.44C107.728 183.44 106.558 181.88 106.558 179.18C106.558 176.51 107.728 174.98 109.798 174.98ZM125.608 181.55C122.158 181.55 120.058 183.89 120.058 187.79C120.058 191.72 122.158 194.06 125.608 194.06C129.058 194.06 131.158 191.72 131.158 187.79C131.158 183.89 129.058 181.55 125.608 181.55ZM125.608 183.56C127.678 183.56 128.878 185.12 128.878 187.79C128.878 190.49 127.678 192.02 125.608 192.02C123.538 192.02 122.368 190.49 122.368 187.79C122.368 185.12 123.538 183.56 125.608 183.56Z" fill="white"/>
<path d="M20.0923 217V206.5H16.2673V208.075H18.3223V217H20.0923ZM38.2202 217V206.5H36.1352L32.6852 213.475L29.2202 206.5H27.1202V217H28.7852V209.155L32.1002 215.905H33.2552L36.5702 209.155L36.5852 217H38.2202ZM44.3073 208.96C41.8323 208.96 40.1373 210.595 40.1373 213.01C40.1373 215.41 41.8323 217.06 44.3073 217.06C46.7673 217.06 48.4623 215.41 48.4623 213.01C48.4623 210.595 46.7673 208.96 44.3073 208.96ZM44.3073 210.445C45.7323 210.445 46.7373 211.495 46.7373 213.025C46.7373 214.57 45.7323 215.62 44.3073 215.62C42.8673 215.62 41.8623 214.57 41.8623 213.025C41.8623 211.495 42.8673 210.445 44.3073 210.445ZM54.9273 208.96C53.5773 208.96 52.5573 209.44 51.9873 210.55V209.02H50.2623V217H51.9873V212.755C52.1073 211.51 52.9323 210.595 54.2523 210.58C55.4523 210.58 56.1723 211.315 56.1723 212.515V217H57.8973V212.035C57.8973 210.13 56.7873 208.96 54.9273 208.96ZM64.2886 215.17C63.8236 215.395 63.4486 215.515 63.0886 215.515C62.5486 215.515 62.2336 215.26 62.2336 214.435V210.61H64.5886V209.32H62.2336V207.13H60.5236V209.32H59.3986V210.61H60.5236V214.75C60.5236 216.385 61.5586 217.075 62.7586 217.075C63.4336 217.075 64.0936 216.865 64.7236 216.49L64.2886 215.17ZM71.072 208.96C69.707 208.96 68.687 209.455 68.117 210.58V205.87H66.392V217H68.117V213.07C68.117 211.66 68.972 210.595 70.397 210.58C71.597 210.58 72.317 211.315 72.317 212.515V217H74.042V212.035C74.042 210.13 72.932 208.96 71.072 208.96ZM82.0184 217V205.87H80.2934V217H82.0184ZM88.0622 208.96C85.5872 208.96 83.8922 210.595 83.8922 213.01C83.8922 215.41 85.5872 217.06 88.0622 217.06C90.5222 217.06 92.2172 215.41 92.2172 213.01C92.2172 210.595 90.5222 208.96 88.0622 208.96ZM88.0622 210.445C89.4872 210.445 90.4922 211.495 90.4922 213.025C90.4922 214.57 89.4872 215.62 88.0622 215.62C86.6222 215.62 85.6172 214.57 85.6172 213.025C85.6172 211.495 86.6222 210.445 88.0622 210.445ZM97.2872 208.96C94.9172 208.96 93.2672 210.61 93.2672 213.025C93.2672 215.425 94.9172 217.06 97.2872 217.06C98.8022 217.06 99.9572 216.52 100.677 215.575L99.7172 214.615C99.1772 215.245 98.3672 215.575 97.3622 215.575C95.9822 215.575 94.9922 214.54 94.9922 213.025C94.9922 211.51 95.9822 210.475 97.3622 210.475C98.3222 210.46 99.0872 210.805 99.6422 211.375L100.587 210.265C99.8522 209.425 98.7272 208.96 97.2872 208.96ZM105.634 213.34L107.974 217H110.014L106.834 212.11L109.789 209.02H107.809L104.284 212.59V205.87H102.559V217H104.284V214.765L105.634 213.34ZM114.309 208.96C111.939 208.975 110.274 210.61 110.274 213.025C110.274 215.425 111.894 217.06 114.354 217.06C115.734 217.06 116.874 216.565 117.654 215.71L116.739 214.735C116.154 215.335 115.359 215.665 114.489 215.665C113.229 215.665 112.284 214.9 112.014 213.67H118.044C118.254 210.79 117.114 208.96 114.309 208.96ZM111.984 212.41C112.179 211.135 113.064 210.34 114.324 210.34C115.629 210.34 116.484 211.12 116.544 212.41H111.984ZM127.447 205.87H125.722V210.4C125.137 209.47 124.177 208.945 122.887 208.945C120.637 208.945 119.092 210.58 119.092 212.98C119.092 215.41 120.622 217.075 122.917 217.075C124.192 217.075 125.152 216.565 125.722 215.635V217H127.447V205.87ZM123.277 215.635C121.822 215.635 120.832 214.555 120.817 213.04C120.832 211.51 121.837 210.415 123.277 210.415C124.717 210.415 125.722 211.495 125.722 213.04C125.722 214.555 124.717 215.635 123.277 215.635ZM130.427 215.185C129.887 215.185 129.497 215.59 129.497 216.145C129.497 216.46 129.632 216.745 129.902 216.925L129.332 218.23H130.217L131.072 216.94C131.237 216.7 131.342 216.445 131.342 216.145C131.342 215.545 130.907 215.185 130.427 215.185ZM37.8901 234V223.5H34.0651V225.075H36.1201V234H37.8901ZM44.8609 223.455C41.9809 223.455 40.3909 225.345 40.3909 228.75C40.3909 232.155 41.9809 234.045 44.8609 234.045C47.7259 234.045 49.3159 232.155 49.3159 228.75C49.3159 225.345 47.7259 223.455 44.8609 223.455ZM44.8609 224.85C46.6159 224.85 47.5009 226.08 47.5009 228.75C47.5009 231.405 46.6159 232.65 44.8609 232.65C43.0909 232.65 42.2059 231.405 42.2059 228.75C42.2059 226.08 43.0909 224.85 44.8609 224.85ZM53.387 223.47C51.662 223.47 50.612 224.64 50.612 226.59C50.612 228.555 51.662 229.74 53.387 229.74C55.112 229.74 56.162 228.555 56.162 226.59C56.162 224.64 55.112 223.47 53.387 223.47ZM52.592 234H54.257L61.967 223.5H60.317L52.592 234ZM53.387 224.49C54.422 224.49 55.022 225.255 55.022 226.59C55.022 227.94 54.422 228.72 53.387 228.72C52.352 228.72 51.767 227.94 51.767 226.59C51.767 225.255 52.352 224.49 53.387 224.49ZM61.292 227.775C59.567 227.775 58.517 228.945 58.517 230.895C58.517 232.86 59.567 234.03 61.292 234.03C63.017 234.03 64.067 232.86 64.067 230.895C64.067 228.945 63.017 227.775 61.292 227.775ZM61.292 228.78C62.327 228.78 62.927 229.56 62.927 230.895C62.927 232.245 62.327 233.01 61.292 233.01C60.257 233.01 59.672 232.245 59.672 230.895C59.672 229.56 60.257 228.78 61.292 228.78ZM80.184 225.96C78.729 225.96 77.664 226.545 77.154 227.88C76.779 226.665 75.804 225.96 74.379 225.96C73.059 225.96 72.039 226.44 71.484 227.565V226.02H69.774V234H71.484V230.055C71.484 228.66 72.324 227.61 73.704 227.565C74.874 227.565 75.579 228.3 75.579 229.515V234H77.304V230.055C77.304 228.66 78.129 227.61 79.494 227.565C80.664 227.565 81.384 228.3 81.384 229.515V234H83.109V229.035C83.109 227.13 82.014 225.96 80.184 225.96ZM88.8386 225.96C86.3636 225.96 84.6686 227.595 84.6686 230.01C84.6686 232.41 86.3636 234.06 88.8386 234.06C91.2986 234.06 92.9936 232.41 92.9936 230.01C92.9936 227.595 91.2986 225.96 88.8386 225.96ZM88.8386 227.445C90.2636 227.445 91.2686 228.495 91.2686 230.025C91.2686 231.57 90.2636 232.62 88.8386 232.62C87.3986 232.62 86.3936 231.57 86.3936 230.025C86.3936 228.495 87.3986 227.445 88.8386 227.445ZM99.4586 225.96C98.1086 225.96 97.0886 226.44 96.5186 227.55V226.02H94.7936V234H96.5186V229.755C96.6386 228.51 97.4636 227.595 98.7836 227.58C99.9836 227.58 100.704 228.315 100.704 229.515V234H102.429V229.035C102.429 227.13 101.319 225.96 99.4586 225.96ZM108.82 232.17C108.355 232.395 107.98 232.515 107.62 232.515C107.08 232.515 106.765 232.26 106.765 231.435V227.61H109.12V226.32H106.765V224.13H105.055V226.32H103.93V227.61H105.055V231.75C105.055 233.385 106.09 234.075 107.29 234.075C107.965 234.075 108.625 233.865 109.255 233.49L108.82 232.17ZM115.603 225.96C114.238 225.96 113.218 226.455 112.648 227.58V222.87H110.923V234H112.648V230.07C112.648 228.66 113.503 227.595 114.928 227.58C116.128 227.58 116.848 228.315 116.848 229.515V234H118.573V229.035C118.573 227.13 117.463 225.96 115.603 225.96ZM122.682 234V222.87H120.957V234H122.682ZM132.071 226.02H130.346L128.126 232.065L125.741 226.02H123.956L127.256 233.88L126.986 234.48C126.716 235.08 126.296 235.365 125.771 235.365C125.411 235.365 125.111 235.245 124.736 234.975L124.001 236.31C124.556 236.775 125.126 236.985 125.846 236.985C127.046 236.985 127.946 236.355 128.441 235.095L132.071 226.02Z" fill="#DB9CFF"/>
<line x1="222" y1="284" x2="222" y2="97" stroke="url(#paint7_linear)" stroke-width="2"/>
<circle r="6.65641" transform="matrix(-1 0 0 1 222.656 284.344)" fill="white"/>
<path d="M253.38 101.7V99H238.11V105.12H241.23L241.26 102.18H249.42L241.26 120H245.01L253.38 101.7ZM256.471 116.31C255.391 116.31 254.581 117.12 254.581 118.26C254.581 119.43 255.391 120.27 256.471 120.27C257.551 120.27 258.361 119.43 258.361 118.26C258.361 117.12 257.551 116.31 256.471 116.31ZM274.914 102.18L274.884 99H262.104V110.1C263.514 109.95 266.364 109.83 267.624 109.83C270.324 109.83 271.974 111.15 271.974 113.28C271.974 115.65 270.324 117.06 267.594 117.06C265.704 117.06 263.604 116.25 261.924 114.84L260.514 117.72C262.584 119.16 265.494 120.12 267.984 120.12C272.694 120.12 275.754 117.33 275.754 113.07C275.754 109.38 272.814 106.68 268.254 106.68L265.374 106.71V102.18H274.914ZM283.739 98.94C280.289 98.94 278.189 101.28 278.189 105.18C278.189 109.11 280.289 111.48 283.739 111.48C287.189 111.48 289.289 109.11 289.289 105.18C289.289 101.28 287.189 98.94 283.739 98.94ZM282.149 120H285.479L300.899 99H297.599L282.149 120ZM283.739 100.98C285.809 100.98 287.009 102.51 287.009 105.18C287.009 107.88 285.809 109.44 283.739 109.44C281.669 109.44 280.499 107.88 280.499 105.18C280.499 102.51 281.669 100.98 283.739 100.98ZM299.549 107.55C296.099 107.55 293.999 109.89 293.999 113.79C293.999 117.72 296.099 120.06 299.549 120.06C302.999 120.06 305.099 117.72 305.099 113.79C305.099 109.89 302.999 107.55 299.549 107.55ZM299.549 109.56C301.619 109.56 302.819 111.12 302.819 113.79C302.819 116.49 301.619 118.02 299.549 118.02C297.479 118.02 296.309 116.49 296.309 113.79C296.309 111.12 297.479 109.56 299.549 109.56Z" fill="white"/>
<path d="M242.838 131.956C241.653 133.666 241.008 135.961 241.008 138.451C241.008 140.941 241.653 143.236 242.838 144.946H244.398C243.303 143.236 242.628 140.941 242.628 138.451C242.628 135.961 243.303 133.666 244.398 131.956H242.838ZM254.948 132.586H253.178V138.736C253.178 140.521 252.113 141.571 250.403 141.571C248.678 141.571 247.583 140.506 247.583 138.736V132.586H245.813V138.736C245.813 141.481 247.553 143.161 250.388 143.161C253.223 143.161 254.948 141.481 254.948 138.736V132.586ZM262.038 135.046C260.688 135.046 259.668 135.526 259.098 136.636V135.106H257.373V143.086H259.098V138.841C259.218 137.596 260.043 136.681 261.363 136.666C262.563 136.666 263.283 137.401 263.283 138.601V143.086H265.008V138.121C265.008 136.216 263.898 135.046 262.038 135.046ZM269.119 143.086V131.956H267.394V143.086H269.119ZM275.163 135.046C272.688 135.046 270.993 136.681 270.993 139.096C270.993 141.496 272.688 143.146 275.163 143.146C277.623 143.146 279.318 141.496 279.318 139.096C279.318 136.681 277.623 135.046 275.163 135.046ZM275.163 136.531C276.588 136.531 277.593 137.581 277.593 139.111C277.593 140.656 276.588 141.706 275.163 141.706C273.723 141.706 272.718 140.656 272.718 139.111C272.718 137.581 273.723 136.531 275.163 136.531ZM284.388 135.046C282.018 135.046 280.368 136.696 280.368 139.111C280.368 141.511 282.018 143.146 284.388 143.146C285.903 143.146 287.058 142.606 287.778 141.661L286.818 140.701C286.278 141.331 285.468 141.661 284.463 141.661C283.083 141.661 282.093 140.626 282.093 139.111C282.093 137.596 283.083 136.561 284.463 136.561C285.423 136.546 286.188 136.891 286.743 137.461L287.688 136.351C286.953 135.511 285.828 135.046 284.388 135.046ZM292.735 139.426L295.075 143.086H297.115L293.935 138.196L296.89 135.106H294.91L291.385 138.676V131.956H289.66V143.086H291.385V140.851L292.735 139.426ZM301.41 135.046C299.04 135.061 297.375 136.696 297.375 139.111C297.375 141.511 298.995 143.146 301.455 143.146C302.835 143.146 303.975 142.651 304.755 141.796L303.84 140.821C303.255 141.421 302.46 141.751 301.59 141.751C300.33 141.751 299.385 140.986 299.115 139.756H305.145C305.355 136.876 304.215 135.046 301.41 135.046ZM299.085 138.496C299.28 137.221 300.165 136.426 301.425 136.426C302.73 136.426 303.585 137.206 303.645 138.496H299.085ZM314.548 131.956H312.823V136.486C312.238 135.556 311.278 135.031 309.988 135.031C307.738 135.031 306.193 136.666 306.193 139.066C306.193 141.496 307.723 143.161 310.018 143.161C311.293 143.161 312.253 142.651 312.823 141.721V143.086H314.548V131.956ZM310.378 141.721C308.923 141.721 307.933 140.641 307.918 139.126C307.933 137.596 308.938 136.501 310.378 136.501C311.818 136.501 312.823 137.581 312.823 139.126C312.823 140.641 311.818 141.721 310.378 141.721ZM317.678 131.956C318.773 133.666 319.448 135.961 319.448 138.451C319.448 140.941 318.773 143.236 317.678 144.946H319.238C320.423 143.236 321.068 140.941 321.068 138.451C321.068 135.961 320.423 133.666 319.238 131.956H317.678Z" fill="#D285FF"/>
<line x1="344" y1="238" x2="344" y2="19" stroke="url(#paint8_linear)" stroke-width="2"/>
<circle r="6.65641" transform="matrix(-1 0 0 1 344.656 238.344)" fill="white"/>
<path d="M366.38 20V41H364.22V21.92H359.27V20H366.38ZM379.77 41.18C378.15 41.18 376.7 40.75 375.42 39.89C374.16 39.03 373.17 37.8 372.45 36.2C371.75 34.58 371.4 32.68 371.4 30.5C371.4 28.32 371.75 26.43 372.45 24.83C373.17 23.21 374.16 21.97 375.42 21.11C376.7 20.25 378.15 19.82 379.77 19.82C381.39 19.82 382.83 20.25 384.09 21.11C385.37 21.97 386.37 23.21 387.09 24.83C387.81 26.43 388.17 28.32 388.17 30.5C388.17 32.68 387.81 34.58 387.09 36.2C386.37 37.8 385.37 39.03 384.09 39.89C382.83 40.75 381.39 41.18 379.77 41.18ZM379.77 39.2C380.99 39.2 382.06 38.86 382.98 38.18C383.92 37.5 384.65 36.51 385.17 35.21C385.69 33.91 385.95 32.34 385.95 30.5C385.95 28.66 385.69 27.09 385.17 25.79C384.65 24.49 383.92 23.5 382.98 22.82C382.06 22.14 380.99 21.8 379.77 21.8C378.55 21.8 377.47 22.14 376.53 22.82C375.61 23.5 374.89 24.49 374.37 25.79C373.85 27.09 373.59 28.66 373.59 30.5C373.59 32.34 373.85 33.91 374.37 35.21C374.89 36.51 375.61 37.5 376.53 38.18C377.47 38.86 378.55 39.2 379.77 39.2ZM395.703 31.25C394.283 31.25 393.133 30.73 392.253 29.69C391.393 28.63 390.963 27.25 390.963 25.55C390.963 23.85 391.393 22.48 392.253 21.44C393.133 20.38 394.283 19.85 395.703 19.85C397.103 19.85 398.243 20.37 399.123 21.41C400.003 22.45 400.443 23.83 400.443 25.55C400.443 27.27 400.003 28.65 399.123 29.69C398.243 30.73 397.103 31.25 395.703 31.25ZM408.423 20H410.193L395.853 41H394.083L408.423 20ZM395.703 29.9C396.683 29.9 397.463 29.52 398.043 28.76C398.643 27.98 398.943 26.91 398.943 25.55C398.943 24.19 398.643 23.13 398.043 22.37C397.463 21.59 396.683 21.2 395.703 21.2C394.703 21.2 393.913 21.59 393.333 22.37C392.753 23.15 392.463 24.21 392.463 25.55C392.463 26.89 392.753 27.95 393.333 28.73C393.913 29.51 394.703 29.9 395.703 29.9ZM408.573 41.15C407.173 41.15 406.033 40.63 405.153 39.59C404.273 38.53 403.833 37.15 403.833 35.45C403.833 33.75 404.273 32.38 405.153 31.34C406.033 30.28 407.173 29.75 408.573 29.75C409.993 29.75 411.133 30.28 411.993 31.34C412.873 32.38 413.313 33.75 413.313 35.45C413.313 37.15 412.873 38.53 411.993 39.59C411.133 40.63 409.993 41.15 408.573 41.15ZM408.573 39.8C409.573 39.8 410.363 39.41 410.943 38.63C411.523 37.85 411.813 36.79 411.813 35.45C411.813 34.11 411.523 33.05 410.943 32.27C410.363 31.49 409.573 31.1 408.573 31.1C407.593 31.1 406.803 31.49 406.203 32.27C405.623 33.03 405.333 34.09 405.333 35.45C405.333 36.81 405.623 37.88 406.203 38.66C406.803 39.42 407.593 39.8 408.573 39.8Z" fill="white"/>
<path d="M368.06 65L372.305 54.5H370.46L367.19 63.035L363.95 54.5H362.045L366.23 65H368.06ZM376.111 56.96C373.741 56.975 372.076 58.61 372.076 61.025C372.076 63.425 373.696 65.06 376.156 65.06C377.536 65.06 378.676 64.565 379.456 63.71L378.541 62.735C377.956 63.335 377.161 63.665 376.291 63.665C375.031 63.665 374.086 62.9 373.816 61.67H379.846C380.056 58.79 378.916 56.96 376.111 56.96ZM373.786 60.41C373.981 59.135 374.866 58.34 376.126 58.34C377.431 58.34 378.286 59.12 378.346 60.41H373.786ZM384.029 56.945C382.499 56.945 381.089 57.635 381.089 59.255C381.074 62.135 385.274 61.22 385.274 62.855C385.274 63.455 384.704 63.71 383.969 63.71C383.099 63.71 381.989 63.335 381.299 62.72L380.684 63.95C381.479 64.67 382.724 65.06 383.894 65.06C385.499 65.06 386.954 64.325 386.954 62.69C386.969 59.795 382.724 60.59 382.724 59.12C382.724 58.55 383.219 58.325 383.894 58.325C384.599 58.325 385.484 58.595 386.189 59.03L386.819 57.755C386.099 57.245 385.034 56.945 384.029 56.945ZM392.77 63.17C392.305 63.395 391.93 63.515 391.57 63.515C391.03 63.515 390.715 63.26 390.715 62.435V58.61H393.07V57.32H390.715V55.13H389.005V57.32H387.88V58.61H389.005V62.75C389.005 64.385 390.04 65.075 391.24 65.075C391.915 65.075 392.575 64.865 393.205 64.49L392.77 63.17ZM397.996 56.96C395.626 56.975 393.961 58.61 393.961 61.025C393.961 63.425 395.581 65.06 398.041 65.06C399.421 65.06 400.561 64.565 401.341 63.71L400.426 62.735C399.841 63.335 399.046 63.665 398.176 63.665C396.916 63.665 395.971 62.9 395.701 61.67H401.731C401.941 58.79 400.801 56.96 397.996 56.96ZM395.671 60.41C395.866 59.135 396.751 58.34 398.011 58.34C399.316 58.34 400.171 59.12 400.231 60.41H395.671ZM411.134 53.87H409.409V58.4C408.824 57.47 407.864 56.945 406.574 56.945C404.324 56.945 402.779 58.58 402.779 60.98C402.779 63.41 404.309 65.075 406.604 65.075C407.879 65.075 408.839 64.565 409.409 63.635V65H411.134V53.87ZM406.964 63.635C405.509 63.635 404.519 62.555 404.504 61.04C404.519 59.51 405.524 58.415 406.964 58.415C408.404 58.415 409.409 59.495 409.409 61.04C409.409 62.555 408.404 63.635 406.964 63.635Z" fill="#D285FF"/>
<line x1="441" y1="225" x2="441" y2="6" stroke="url(#paint9_linear)" stroke-width="2"/>
<circle r="6.65641" transform="matrix(-1 0 0 1 441.656 225.344)" fill="white"/>
<path d="M464.64 7.85C461.94 7.85 459.27 8.99 456.99 10.85L458.4 13.58C460.17 11.96 462.3 10.94 464.13 10.94C466.32 10.94 467.64 11.96 467.64 13.64C467.64 14.84 466.62 16.55 465.09 18.11L457.35 26.42V29H472.29V25.82H462.03L467.49 20.03C469.71 17.63 471.33 15.26 471.33 13.13C471.33 9.92 468.6 7.85 464.64 7.85ZM480.327 7.94C476.877 7.94 474.777 10.28 474.777 14.18C474.777 18.11 476.877 20.48 480.327 20.48C483.777 20.48 485.877 18.11 485.877 14.18C485.877 10.28 483.777 7.94 480.327 7.94ZM478.737 29H482.067L497.487 8H494.187L478.737 29ZM480.327 9.98C482.397 9.98 483.597 11.51 483.597 14.18C483.597 16.88 482.397 18.44 480.327 18.44C478.257 18.44 477.087 16.88 477.087 14.18C477.087 11.51 478.257 9.98 480.327 9.98ZM496.137 16.55C492.687 16.55 490.587 18.89 490.587 22.79C490.587 26.72 492.687 29.06 496.137 29.06C499.587 29.06 501.687 26.72 501.687 22.79C501.687 18.89 499.587 16.55 496.137 16.55ZM496.137 18.56C498.207 18.56 499.407 20.12 499.407 22.79C499.407 25.49 498.207 27.02 496.137 27.02C494.067 27.02 492.897 25.49 492.897 22.79C492.897 20.12 494.067 18.56 496.137 18.56Z" fill="white"/>
<path d="M461.838 40.9557C460.653 42.6657 460.008 44.9607 460.008 47.4507C460.008 49.9407 460.653 52.2357 461.838 53.9457H463.398C462.303 52.2357 461.628 49.9407 461.628 47.4507C461.628 44.9607 462.303 42.6657 463.398 40.9557H461.838ZM473.948 41.5857H472.178V47.7357C472.178 49.5207 471.113 50.5707 469.403 50.5707C467.678 50.5707 466.583 49.5057 466.583 47.7357V41.5857H464.813V47.7357C464.813 50.4807 466.553 52.1607 469.388 52.1607C472.223 52.1607 473.948 50.4807 473.948 47.7357V41.5857ZM481.038 44.0457C479.688 44.0457 478.668 44.5257 478.098 45.6357V44.1057H476.373V52.0857H478.098V47.8407C478.218 46.5957 479.043 45.6807 480.363 45.6657C481.563 45.6657 482.283 46.4007 482.283 47.6007V52.0857H484.008V47.1207C484.008 45.2157 482.898 44.0457 481.038 44.0457ZM488.119 52.0857V40.9557H486.394V52.0857H488.119ZM494.163 44.0457C491.688 44.0457 489.993 45.6807 489.993 48.0957C489.993 50.4957 491.688 52.1457 494.163 52.1457C496.623 52.1457 498.318 50.4957 498.318 48.0957C498.318 45.6807 496.623 44.0457 494.163 44.0457ZM494.163 45.5307C495.588 45.5307 496.593 46.5807 496.593 48.1107C496.593 49.6557 495.588 50.7057 494.163 50.7057C492.723 50.7057 491.718 49.6557 491.718 48.1107C491.718 46.5807 492.723 45.5307 494.163 45.5307ZM503.388 44.0457C501.018 44.0457 499.368 45.6957 499.368 48.1107C499.368 50.5107 501.018 52.1457 503.388 52.1457C504.903 52.1457 506.058 51.6057 506.778 50.6607L505.818 49.7007C505.278 50.3307 504.468 50.6607 503.463 50.6607C502.083 50.6607 501.093 49.6257 501.093 48.1107C501.093 46.5957 502.083 45.5607 503.463 45.5607C504.423 45.5457 505.188 45.8907 505.743 46.4607L506.688 45.3507C505.953 44.5107 504.828 44.0457 503.388 44.0457ZM511.735 48.4257L514.075 52.0857H516.115L512.935 47.1957L515.89 44.1057H513.91L510.385 47.6757V40.9557H508.66V52.0857H510.385V49.8507L511.735 48.4257ZM520.41 44.0457C518.04 44.0607 516.375 45.6957 516.375 48.1107C516.375 50.5107 517.995 52.1457 520.455 52.1457C521.835 52.1457 522.975 51.6507 523.755 50.7957L522.84 49.8207C522.255 50.4207 521.46 50.7507 520.59 50.7507C519.33 50.7507 518.385 49.9857 518.115 48.7557H524.145C524.355 45.8757 523.215 44.0457 520.41 44.0457ZM518.085 47.4957C518.28 46.2207 519.165 45.4257 520.425 45.4257C521.73 45.4257 522.585 46.2057 522.645 47.4957H518.085ZM533.548 40.9557H531.823V45.4857C531.238 44.5557 530.278 44.0307 528.988 44.0307C526.738 44.0307 525.193 45.6657 525.193 48.0657C525.193 50.4957 526.723 52.1607 529.018 52.1607C530.293 52.1607 531.253 51.6507 531.823 50.7207V52.0857H533.548V40.9557ZM529.378 50.7207C527.923 50.7207 526.933 49.6407 526.918 48.1257C526.933 46.5957 527.938 45.5007 529.378 45.5007C530.818 45.5007 531.823 46.5807 531.823 48.1257C531.823 49.6407 530.818 50.7207 529.378 50.7207ZM536.678 40.9557C537.773 42.6657 538.448 44.9607 538.448 47.4507C538.448 49.9407 537.773 52.2357 536.678 53.9457H538.238C539.423 52.2357 540.068 49.9407 540.068 47.4507C540.068 44.9607 539.423 42.6657 538.238 40.9557H536.678Z" fill="#D285FF"/>
<defs>
<linearGradient id="paint0_linear" x1="577.656" y1="51.6072" x2="577.656" y2="237.987" gradientUnits="userSpaceOnUse">
<stop stop-color="#2F6AD2"/>
<stop offset="1" stop-color="white"/>
</linearGradient>
<linearGradient id="paint1_linear" x1="742" y1="101" x2="742" y2="334" gradientUnits="userSpaceOnUse">
<stop stop-color="#ED7D31"/>
<stop offset="1" stop-color="white"/>
</linearGradient>
<linearGradient id="paint2_linear" x1="774.656" y1="182.607" x2="774.656" y2="368.987" gradientUnits="userSpaceOnUse">
<stop stop-color="#70AD47"/>
<stop offset="1" stop-color="white"/>
</linearGradient>
<linearGradient id="paint3_linear" x1="743.656" y1="633.036" x2="743.656" y2="446.656" gradientUnits="userSpaceOnUse">
<stop stop-color="#3BE0ED"/>
<stop offset="1" stop-color="white"/>
</linearGradient>
<linearGradient id="paint4_linear" x1="675.999" y1="489" x2="678.999" y2="725" gradientUnits="userSpaceOnUse">
<stop stop-color="white"/>
<stop offset="1" stop-color="#FFC000"/>
</linearGradient>
<linearGradient id="paint5_linear" x1="355" y1="739.5" x2="355" y2="498.5" gradientUnits="userSpaceOnUse">
<stop stop-color="#EE32BC"/>
<stop offset="1" stop-color="white"/>
</linearGradient>
<linearGradient id="paint6_linear" x1="147" y1="171" x2="147" y2="358" gradientUnits="userSpaceOnUse">
<stop stop-color="#7614AF"/>
<stop offset="1" stop-color="#F8B6FF"/>
</linearGradient>
<linearGradient id="paint7_linear" x1="223" y1="97" x2="223" y2="284" gradientUnits="userSpaceOnUse">
<stop stop-color="#7614AF"/>
<stop offset="1" stop-color="#F8B6FF"/>
</linearGradient>
<linearGradient id="paint8_linear" x1="345" y1="19" x2="345" y2="238" gradientUnits="userSpaceOnUse">
<stop stop-color="#7614AF"/>
<stop offset="1" stop-color="#F8B6FF"/>
</linearGradient>
<linearGradient id="paint9_linear" x1="442" y1="6" x2="442" y2="225" gradientUnits="userSpaceOnUse">
<stop stop-color="#7614AF"/>
<stop offset="1" stop-color="#F8B6FF"/>
</linearGradient>
</defs>
</svg>
