<svg width="622" height="199" viewBox="0 0 622 199" fill="none" xmlns="http://www.w3.org/2000/svg">
<rect width="361.21" height="62.9494" fill="url(#paint0_linear)"/>
<path d="M114.945 27.19H111.165V26.5H119.49V27.19H115.71V37H114.945V27.19ZM123.387 37.06C122.647 37.06 121.977 36.89 121.377 36.55C120.787 36.21 120.322 35.74 119.982 35.14C119.642 34.53 119.472 33.845 119.472 33.085C119.472 32.325 119.642 31.645 119.982 31.045C120.322 30.435 120.787 29.96 121.377 29.62C121.977 29.28 122.647 29.11 123.387 29.11C124.127 29.11 124.792 29.28 125.382 29.62C125.982 29.96 126.452 30.435 126.792 31.045C127.132 31.645 127.302 32.325 127.302 33.085C127.302 33.845 127.132 34.53 126.792 35.14C126.452 35.74 125.982 36.21 125.382 36.55C124.792 36.89 124.127 37.06 123.387 37.06ZM123.387 36.385C123.987 36.385 124.522 36.245 124.992 35.965C125.472 35.685 125.847 35.295 126.117 34.795C126.397 34.295 126.537 33.725 126.537 33.085C126.537 32.445 126.397 31.875 126.117 31.375C125.847 30.875 125.472 30.485 124.992 30.205C124.522 29.925 123.987 29.785 123.387 29.785C122.787 29.785 122.247 29.925 121.767 30.205C121.297 30.485 120.922 30.875 120.642 31.375C120.372 31.875 120.237 32.445 120.237 33.085C120.237 33.725 120.372 34.295 120.642 34.795C120.922 35.295 121.297 35.685 121.767 35.965C122.247 36.245 122.787 36.385 123.387 36.385ZM133.514 36.505C133.324 36.685 133.084 36.825 132.794 36.925C132.514 37.015 132.219 37.06 131.909 37.06C131.229 37.06 130.704 36.875 130.334 36.505C129.964 36.125 129.779 35.6 129.779 34.93V29.815H128.339V29.17H129.779V27.46H130.529V29.17H133.019V29.815H130.529V34.855C130.529 35.365 130.649 35.755 130.889 36.025C131.139 36.285 131.504 36.415 131.984 36.415C132.474 36.415 132.879 36.27 133.199 35.98L133.514 36.505ZM138.245 29.11C139.215 29.11 139.96 29.36 140.48 29.86C141 30.35 141.26 31.075 141.26 32.035V37H140.54V35.605C140.29 36.065 139.925 36.425 139.445 36.685C138.965 36.935 138.39 37.06 137.72 37.06C136.85 37.06 136.16 36.855 135.65 36.445C135.15 36.035 134.9 35.495 134.9 34.825C134.9 34.175 135.13 33.65 135.59 33.25C136.06 32.84 136.805 32.635 137.825 32.635H140.51V32.005C140.51 31.275 140.31 30.72 139.91 30.34C139.52 29.96 138.945 29.77 138.185 29.77C137.665 29.77 137.165 29.86 136.685 30.04C136.215 30.22 135.815 30.46 135.485 30.76L135.11 30.22C135.5 29.87 135.97 29.6 136.52 29.41C137.07 29.21 137.645 29.11 138.245 29.11ZM137.825 36.445C138.475 36.445 139.025 36.295 139.475 35.995C139.935 35.695 140.28 35.26 140.51 34.69V33.22H137.84C137.07 33.22 136.51 33.36 136.16 33.64C135.82 33.92 135.65 34.305 135.65 34.795C135.65 35.305 135.84 35.71 136.22 36.01C136.6 36.3 137.135 36.445 137.825 36.445ZM144.351 25.87H145.101V37H144.351V25.87ZM154.364 27.19H150.584V26.5H158.909V27.19H155.129V37H154.364V27.19ZM162.806 37.06C162.066 37.06 161.396 36.89 160.796 36.55C160.206 36.21 159.741 35.74 159.401 35.14C159.061 34.53 158.891 33.845 158.891 33.085C158.891 32.325 159.061 31.645 159.401 31.045C159.741 30.435 160.206 29.96 160.796 29.62C161.396 29.28 162.066 29.11 162.806 29.11C163.546 29.11 164.211 29.28 164.801 29.62C165.401 29.96 165.871 30.435 166.211 31.045C166.551 31.645 166.721 32.325 166.721 33.085C166.721 33.845 166.551 34.53 166.211 35.14C165.871 35.74 165.401 36.21 164.801 36.55C164.211 36.89 163.546 37.06 162.806 37.06ZM162.806 36.385C163.406 36.385 163.941 36.245 164.411 35.965C164.891 35.685 165.266 35.295 165.536 34.795C165.816 34.295 165.956 33.725 165.956 33.085C165.956 32.445 165.816 31.875 165.536 31.375C165.266 30.875 164.891 30.485 164.411 30.205C163.941 29.925 163.406 29.785 162.806 29.785C162.206 29.785 161.666 29.925 161.186 30.205C160.716 30.485 160.341 30.875 160.061 31.375C159.791 31.875 159.656 32.445 159.656 33.085C159.656 33.725 159.791 34.295 160.061 34.795C160.341 35.295 160.716 35.685 161.186 35.965C161.666 36.245 162.206 36.385 162.806 36.385ZM171.838 32.815L169.798 34.675V37H169.048V25.87H169.798V33.745L174.808 29.17H175.768L172.393 32.335L176.098 37H175.168L171.838 32.815ZM184.159 33.265H177.424C177.444 33.875 177.599 34.42 177.889 34.9C178.179 35.37 178.569 35.735 179.059 35.995C179.559 36.255 180.119 36.385 180.739 36.385C181.249 36.385 181.719 36.295 182.149 36.115C182.589 35.925 182.954 35.65 183.244 35.29L183.679 35.785C183.339 36.195 182.909 36.51 182.389 36.73C181.879 36.95 181.324 37.06 180.724 37.06C179.944 37.06 179.249 36.89 178.639 36.55C178.029 36.21 177.549 35.74 177.199 35.14C176.859 34.54 176.689 33.855 176.689 33.085C176.689 32.325 176.849 31.645 177.169 31.045C177.499 30.435 177.949 29.96 178.519 29.62C179.089 29.28 179.729 29.11 180.439 29.11C181.149 29.11 181.784 29.28 182.344 29.62C182.914 29.95 183.359 30.415 183.679 31.015C184.009 31.615 184.174 32.295 184.174 33.055L184.159 33.265ZM180.439 29.77C179.889 29.77 179.394 29.895 178.954 30.145C178.514 30.385 178.159 30.73 177.889 31.18C177.629 31.62 177.479 32.12 177.439 32.68H183.439C183.409 32.12 183.259 31.62 182.989 31.18C182.719 30.74 182.364 30.395 181.924 30.145C181.484 29.895 180.989 29.77 180.439 29.77ZM190.319 29.11C191.299 29.11 192.074 29.395 192.644 29.965C193.214 30.535 193.499 31.355 193.499 32.425V37H192.749V32.485C192.749 31.605 192.524 30.935 192.074 30.475C191.634 30.015 191.014 29.785 190.214 29.785C189.294 29.785 188.569 30.06 188.039 30.61C187.509 31.16 187.244 31.9 187.244 32.83V37H186.494V29.17H187.214V30.865C187.484 30.315 187.884 29.885 188.414 29.575C188.954 29.265 189.589 29.11 190.319 29.11ZM203.439 37.075C202.669 37.075 201.934 36.945 201.234 36.685C200.544 36.415 200.004 36.07 199.614 35.65L199.959 35.08C200.329 35.47 200.824 35.79 201.444 36.04C202.074 36.28 202.734 36.4 203.424 36.4C204.424 36.4 205.179 36.21 205.689 35.83C206.199 35.45 206.454 34.955 206.454 34.345C206.454 33.875 206.319 33.5 206.049 33.22C205.779 32.94 205.444 32.725 205.044 32.575C204.644 32.425 204.104 32.27 203.424 32.11C202.654 31.92 202.034 31.735 201.564 31.555C201.104 31.375 200.709 31.1 200.379 30.73C200.059 30.35 199.899 29.845 199.899 29.215C199.899 28.705 200.034 28.24 200.304 27.82C200.574 27.39 200.984 27.05 201.534 26.8C202.094 26.55 202.789 26.425 203.619 26.425C204.199 26.425 204.769 26.51 205.329 26.68C205.889 26.85 206.374 27.08 206.784 27.37L206.499 27.985C206.079 27.695 205.614 27.475 205.104 27.325C204.604 27.175 204.109 27.1 203.619 27.1C202.649 27.1 201.914 27.295 201.414 27.685C200.914 28.075 200.664 28.58 200.664 29.2C200.664 29.67 200.799 30.045 201.069 30.325C201.339 30.605 201.674 30.82 202.074 30.97C202.474 31.12 203.019 31.28 203.709 31.45C204.479 31.64 205.094 31.825 205.554 32.005C206.014 32.185 206.404 32.46 206.724 32.83C207.054 33.19 207.219 33.68 207.219 34.3C207.219 34.81 207.079 35.275 206.799 35.695C206.529 36.115 206.109 36.45 205.539 36.7C204.969 36.95 204.269 37.075 203.439 37.075ZM216.435 29.17V37H215.715V35.32C215.455 35.87 215.07 36.3 214.56 36.61C214.05 36.91 213.45 37.06 212.76 37.06C211.74 37.06 210.94 36.775 210.36 36.205C209.78 35.635 209.49 34.815 209.49 33.745V29.17H210.24V33.685C210.24 34.565 210.465 35.235 210.915 35.695C211.365 36.155 212 36.385 212.82 36.385C213.7 36.385 214.395 36.11 214.905 35.56C215.425 35.01 215.685 34.27 215.685 33.34V29.17H216.435ZM223.544 29.11C224.274 29.11 224.934 29.28 225.524 29.62C226.114 29.96 226.574 30.43 226.904 31.03C227.244 31.63 227.414 32.315 227.414 33.085C227.414 33.855 227.244 34.545 226.904 35.155C226.574 35.755 226.114 36.225 225.524 36.565C224.934 36.895 224.274 37.06 223.544 37.06C222.854 37.06 222.229 36.9 221.669 36.58C221.109 36.25 220.674 35.795 220.364 35.215V39.91H219.614V29.17H220.334V31.015C220.644 30.415 221.079 29.95 221.639 29.62C222.209 29.28 222.844 29.11 223.544 29.11ZM223.499 36.385C224.099 36.385 224.639 36.245 225.119 35.965C225.599 35.685 225.974 35.295 226.244 34.795C226.524 34.295 226.664 33.725 226.664 33.085C226.664 32.445 226.524 31.875 226.244 31.375C225.974 30.875 225.599 30.485 225.119 30.205C224.639 29.925 224.099 29.785 223.499 29.785C222.899 29.785 222.359 29.925 221.879 30.205C221.409 30.485 221.034 30.875 220.754 31.375C220.484 31.875 220.349 32.445 220.349 33.085C220.349 33.725 220.484 34.295 220.754 34.795C221.034 35.295 221.409 35.685 221.879 35.965C222.359 36.245 222.899 36.385 223.499 36.385ZM233.666 29.11C234.396 29.11 235.056 29.28 235.646 29.62C236.236 29.96 236.696 30.43 237.026 31.03C237.366 31.63 237.536 32.315 237.536 33.085C237.536 33.855 237.366 34.545 237.026 35.155C236.696 35.755 236.236 36.225 235.646 36.565C235.056 36.895 234.396 37.06 233.666 37.06C232.976 37.06 232.351 36.9 231.791 36.58C231.231 36.25 230.796 35.795 230.486 35.215V39.91H229.736V29.17H230.456V31.015C230.766 30.415 231.201 29.95 231.761 29.62C232.331 29.28 232.966 29.11 233.666 29.11ZM233.621 36.385C234.221 36.385 234.761 36.245 235.241 35.965C235.721 35.685 236.096 35.295 236.366 34.795C236.646 34.295 236.786 33.725 236.786 33.085C236.786 32.445 236.646 31.875 236.366 31.375C236.096 30.875 235.721 30.485 235.241 30.205C234.761 29.925 234.221 29.785 233.621 29.785C233.021 29.785 232.481 29.925 232.001 30.205C231.531 30.485 231.156 30.875 230.876 31.375C230.606 31.875 230.471 32.445 230.471 33.085C230.471 33.725 230.606 34.295 230.876 34.795C231.156 35.295 231.531 35.685 232.001 35.965C232.481 36.245 233.021 36.385 233.621 36.385ZM239.858 25.87H240.608V37H239.858V25.87ZM250.055 29.17L246.035 38.065C245.735 38.755 245.385 39.245 244.985 39.535C244.595 39.825 244.13 39.97 243.59 39.97C243.23 39.97 242.89 39.91 242.57 39.79C242.26 39.67 241.995 39.495 241.775 39.265L242.15 38.695C242.55 39.105 243.035 39.31 243.605 39.31C243.985 39.31 244.31 39.205 244.58 38.995C244.85 38.785 245.1 38.425 245.33 37.915L245.75 36.97L242.225 29.17H243.02L246.155 36.175L249.29 29.17H250.055Z" fill="white"/>
<rect width="256.294" height="62.9494" transform="translate(365.706)" fill="url(#paint1_linear)"/>
<path d="M469.589 26.5V37H468.824V27.19H466.259V26.5H469.589ZM483.334 31.585C484.084 31.725 484.654 32.02 485.044 32.47C485.444 32.92 485.644 33.505 485.644 34.225C485.644 35.115 485.319 35.8 484.669 36.28C484.019 36.76 483.054 37 481.774 37H477.094V26.5H481.474C482.614 26.5 483.499 26.735 484.129 27.205C484.769 27.665 485.089 28.325 485.089 29.185C485.089 29.785 484.929 30.29 484.609 30.7C484.299 31.11 483.874 31.405 483.334 31.585ZM477.859 27.16V31.345H481.444C482.364 31.345 483.069 31.17 483.559 30.82C484.059 30.46 484.309 29.935 484.309 29.245C484.309 28.565 484.059 28.05 483.559 27.7C483.069 27.34 482.364 27.16 481.444 27.16H477.859ZM481.774 36.34C482.794 36.34 483.564 36.165 484.084 35.815C484.614 35.455 484.879 34.905 484.879 34.165C484.879 33.425 484.614 32.88 484.084 32.53C483.564 32.18 482.794 32.005 481.774 32.005H477.859V36.34H481.774ZM488.133 29.17H488.883V37H488.133V29.17ZM488.508 27.265C488.338 27.265 488.193 27.21 488.073 27.1C487.953 26.98 487.893 26.835 487.893 26.665C487.893 26.495 487.953 26.35 488.073 26.23C488.193 26.11 488.338 26.05 488.508 26.05C488.678 26.05 488.823 26.11 488.943 26.23C489.063 26.34 489.123 26.48 489.123 26.65C489.123 26.82 489.063 26.965 488.943 27.085C488.823 27.205 488.678 27.265 488.508 27.265ZM492.045 25.87H492.795V37H492.045V25.87ZM495.956 25.87H496.706V37H495.956V25.87ZM499.867 29.17H500.617V37H499.867V29.17ZM500.242 27.265C500.072 27.265 499.927 27.21 499.807 27.1C499.687 26.98 499.627 26.835 499.627 26.665C499.627 26.495 499.687 26.35 499.807 26.23C499.927 26.11 500.072 26.05 500.242 26.05C500.412 26.05 500.557 26.11 500.677 26.23C500.797 26.34 500.857 26.48 500.857 26.65C500.857 26.82 500.797 26.965 500.677 27.085C500.557 27.205 500.412 27.265 500.242 27.265ZM506.838 37.06C506.098 37.06 505.428 36.89 504.828 36.55C504.238 36.21 503.773 35.74 503.433 35.14C503.093 34.53 502.923 33.845 502.923 33.085C502.923 32.325 503.093 31.645 503.433 31.045C503.773 30.435 504.238 29.96 504.828 29.62C505.428 29.28 506.098 29.11 506.838 29.11C507.578 29.11 508.243 29.28 508.833 29.62C509.433 29.96 509.903 30.435 510.243 31.045C510.583 31.645 510.753 32.325 510.753 33.085C510.753 33.845 510.583 34.53 510.243 35.14C509.903 35.74 509.433 36.21 508.833 36.55C508.243 36.89 507.578 37.06 506.838 37.06ZM506.838 36.385C507.438 36.385 507.973 36.245 508.443 35.965C508.923 35.685 509.298 35.295 509.568 34.795C509.848 34.295 509.988 33.725 509.988 33.085C509.988 32.445 509.848 31.875 509.568 31.375C509.298 30.875 508.923 30.485 508.443 30.205C507.973 29.925 507.438 29.785 506.838 29.785C506.238 29.785 505.698 29.925 505.218 30.205C504.748 30.485 504.373 30.875 504.093 31.375C503.823 31.875 503.688 32.445 503.688 33.085C503.688 33.725 503.823 34.295 504.093 34.795C504.373 35.295 504.748 35.685 505.218 35.965C505.698 36.245 506.238 36.385 506.838 36.385ZM516.905 29.11C517.885 29.11 518.66 29.395 519.23 29.965C519.8 30.535 520.085 31.355 520.085 32.425V37H519.335V32.485C519.335 31.605 519.11 30.935 518.66 30.475C518.22 30.015 517.6 29.785 516.8 29.785C515.88 29.785 515.155 30.06 514.625 30.61C514.095 31.16 513.83 31.9 513.83 32.83V37H513.08V29.17H513.8V30.865C514.07 30.315 514.47 29.885 515 29.575C515.54 29.265 516.175 29.11 516.905 29.11Z" fill="white"/>
<rect width="361.21" height="62.9494" transform="translate(0 68)" fill="url(#paint2_linear)"/>
<path d="M122.853 94.5C124.173 94.5 125.208 94.815 125.958 95.445C126.708 96.065 127.083 96.93 127.083 98.04C127.083 99.14 126.708 100.005 125.958 100.635C125.208 101.255 124.173 101.565 122.853 101.565H119.853V105H119.088V94.5H122.853ZM122.853 100.875C123.973 100.875 124.828 100.63 125.418 100.14C126.008 99.65 126.303 98.95 126.303 98.04C126.303 97.13 126.008 96.43 125.418 95.94C124.828 95.44 123.973 95.19 122.853 95.19H119.853V100.875H122.853ZM129.895 98.88C130.135 98.31 130.51 97.875 131.02 97.575C131.53 97.265 132.15 97.11 132.88 97.11V97.845L132.7 97.83C131.83 97.83 131.15 98.105 130.66 98.655C130.17 99.195 129.925 99.95 129.925 100.92V105H129.175V97.17H129.895V98.88ZM134.946 97.17H135.696V105H134.946V97.17ZM135.321 95.265C135.151 95.265 135.006 95.21 134.886 95.1C134.766 94.98 134.706 94.835 134.706 94.665C134.706 94.495 134.766 94.35 134.886 94.23C135.006 94.11 135.151 94.05 135.321 94.05C135.491 94.05 135.636 94.11 135.756 94.23C135.876 94.34 135.936 94.48 135.936 94.65C135.936 94.82 135.876 94.965 135.756 95.085C135.636 95.205 135.491 95.265 135.321 95.265ZM145.142 97.17L141.602 105H140.837L137.312 97.17H138.107L141.227 104.175L144.377 97.17H145.142ZM149.188 97.11C150.158 97.11 150.903 97.36 151.423 97.86C151.943 98.35 152.203 99.075 152.203 100.035V105H151.483V103.605C151.233 104.065 150.868 104.425 150.388 104.685C149.908 104.935 149.333 105.06 148.663 105.06C147.793 105.06 147.103 104.855 146.593 104.445C146.093 104.035 145.843 103.495 145.843 102.825C145.843 102.175 146.073 101.65 146.533 101.25C147.003 100.84 147.748 100.635 148.768 100.635H151.453V100.005C151.453 99.275 151.253 98.72 150.853 98.34C150.463 97.96 149.888 97.77 149.128 97.77C148.608 97.77 148.108 97.86 147.628 98.04C147.158 98.22 146.758 98.46 146.428 98.76L146.053 98.22C146.443 97.87 146.913 97.6 147.463 97.41C148.013 97.21 148.588 97.11 149.188 97.11ZM148.768 104.445C149.418 104.445 149.968 104.295 150.418 103.995C150.878 103.695 151.223 103.26 151.453 102.69V101.22H148.783C148.013 101.22 147.453 101.36 147.103 101.64C146.763 101.92 146.593 102.305 146.593 102.795C146.593 103.305 146.783 103.71 147.163 104.01C147.543 104.3 148.078 104.445 148.768 104.445ZM159.178 104.505C158.988 104.685 158.748 104.825 158.458 104.925C158.178 105.015 157.883 105.06 157.573 105.06C156.893 105.06 156.368 104.875 155.998 104.505C155.628 104.125 155.443 103.6 155.443 102.93V97.815H154.003V97.17H155.443V95.46H156.193V97.17H158.683V97.815H156.193V102.855C156.193 103.365 156.313 103.755 156.553 104.025C156.803 104.285 157.168 104.415 157.648 104.415C158.138 104.415 158.543 104.27 158.863 103.98L159.178 104.505ZM167.606 101.265H160.871C160.891 101.875 161.046 102.42 161.336 102.9C161.626 103.37 162.016 103.735 162.506 103.995C163.006 104.255 163.566 104.385 164.186 104.385C164.696 104.385 165.166 104.295 165.596 104.115C166.036 103.925 166.401 103.65 166.691 103.29L167.126 103.785C166.786 104.195 166.356 104.51 165.836 104.73C165.326 104.95 164.771 105.06 164.171 105.06C163.391 105.06 162.696 104.89 162.086 104.55C161.476 104.21 160.996 103.74 160.646 103.14C160.306 102.54 160.136 101.855 160.136 101.085C160.136 100.325 160.296 99.645 160.616 99.045C160.946 98.435 161.396 97.96 161.966 97.62C162.536 97.28 163.176 97.11 163.886 97.11C164.596 97.11 165.231 97.28 165.791 97.62C166.361 97.95 166.806 98.415 167.126 99.015C167.456 99.615 167.621 100.295 167.621 101.055L167.606 101.265ZM163.886 97.77C163.336 97.77 162.841 97.895 162.401 98.145C161.961 98.385 161.606 98.73 161.336 99.18C161.076 99.62 160.926 100.12 160.886 100.68H166.886C166.856 100.12 166.706 99.62 166.436 99.18C166.166 98.74 165.811 98.395 165.371 98.145C164.931 97.895 164.436 97.77 163.886 97.77ZM176.794 105.075C176.024 105.075 175.289 104.945 174.589 104.685C173.899 104.415 173.359 104.07 172.969 103.65L173.314 103.08C173.684 103.47 174.179 103.79 174.799 104.04C175.429 104.28 176.089 104.4 176.779 104.4C177.779 104.4 178.534 104.21 179.044 103.83C179.554 103.45 179.809 102.955 179.809 102.345C179.809 101.875 179.674 101.5 179.404 101.22C179.134 100.94 178.799 100.725 178.399 100.575C177.999 100.425 177.459 100.27 176.779 100.11C176.009 99.92 175.389 99.735 174.919 99.555C174.459 99.375 174.064 99.1 173.734 98.73C173.414 98.35 173.254 97.845 173.254 97.215C173.254 96.705 173.389 96.24 173.659 95.82C173.929 95.39 174.339 95.05 174.889 94.8C175.449 94.55 176.144 94.425 176.974 94.425C177.554 94.425 178.124 94.51 178.684 94.68C179.244 94.85 179.729 95.08 180.139 95.37L179.854 95.985C179.434 95.695 178.969 95.475 178.459 95.325C177.959 95.175 177.464 95.1 176.974 95.1C176.004 95.1 175.269 95.295 174.769 95.685C174.269 96.075 174.019 96.58 174.019 97.2C174.019 97.67 174.154 98.045 174.424 98.325C174.694 98.605 175.029 98.82 175.429 98.97C175.829 99.12 176.374 99.28 177.064 99.45C177.834 99.64 178.449 99.825 178.909 100.005C179.369 100.185 179.759 100.46 180.079 100.83C180.409 101.19 180.574 101.68 180.574 102.3C180.574 102.81 180.434 103.275 180.154 103.695C179.884 104.115 179.464 104.45 178.894 104.7C178.324 104.95 177.624 105.075 176.794 105.075ZM185.575 97.11C186.545 97.11 187.29 97.36 187.81 97.86C188.33 98.35 188.59 99.075 188.59 100.035V105H187.87V103.605C187.62 104.065 187.255 104.425 186.775 104.685C186.295 104.935 185.72 105.06 185.05 105.06C184.18 105.06 183.49 104.855 182.98 104.445C182.48 104.035 182.23 103.495 182.23 102.825C182.23 102.175 182.46 101.65 182.92 101.25C183.39 100.84 184.135 100.635 185.155 100.635H187.84V100.005C187.84 99.275 187.64 98.72 187.24 98.34C186.85 97.96 186.275 97.77 185.515 97.77C184.995 97.77 184.495 97.86 184.015 98.04C183.545 98.22 183.145 98.46 182.815 98.76L182.44 98.22C182.83 97.87 183.3 97.6 183.85 97.41C184.4 97.21 184.975 97.11 185.575 97.11ZM185.155 104.445C185.805 104.445 186.355 104.295 186.805 103.995C187.265 103.695 187.61 103.26 187.84 102.69V101.22H185.17C184.4 101.22 183.84 101.36 183.49 101.64C183.15 101.92 182.98 102.305 182.98 102.795C182.98 103.305 183.17 103.71 183.55 104.01C183.93 104.3 184.465 104.445 185.155 104.445ZM191.68 93.87H192.43V105H191.68V93.87ZM202.206 101.265H195.471C195.491 101.875 195.646 102.42 195.936 102.9C196.226 103.37 196.616 103.735 197.106 103.995C197.606 104.255 198.166 104.385 198.786 104.385C199.296 104.385 199.766 104.295 200.196 104.115C200.636 103.925 201.001 103.65 201.291 103.29L201.726 103.785C201.386 104.195 200.956 104.51 200.436 104.73C199.926 104.95 199.371 105.06 198.771 105.06C197.991 105.06 197.296 104.89 196.686 104.55C196.076 104.21 195.596 103.74 195.246 103.14C194.906 102.54 194.736 101.855 194.736 101.085C194.736 100.325 194.896 99.645 195.216 99.045C195.546 98.435 195.996 97.96 196.566 97.62C197.136 97.28 197.776 97.11 198.486 97.11C199.196 97.11 199.831 97.28 200.391 97.62C200.961 97.95 201.406 98.415 201.726 99.015C202.056 99.615 202.221 100.295 202.221 101.055L202.206 101.265ZM198.486 97.77C197.936 97.77 197.441 97.895 197.001 98.145C196.561 98.385 196.206 98.73 195.936 99.18C195.676 99.62 195.526 100.12 195.486 100.68H201.486C201.456 100.12 201.306 99.62 201.036 99.18C200.766 98.74 200.411 98.395 199.971 98.145C199.531 97.895 199.036 97.77 198.486 97.77ZM212.399 94.5C213.719 94.5 214.754 94.815 215.504 95.445C216.254 96.065 216.629 96.93 216.629 98.04C216.629 99.14 216.254 100.005 215.504 100.635C214.754 101.255 213.719 101.565 212.399 101.565H209.399V105H208.634V94.5H212.399ZM212.399 100.875C213.519 100.875 214.374 100.63 214.964 100.14C215.554 99.65 215.849 98.95 215.849 98.04C215.849 97.13 215.554 96.43 214.964 95.94C214.374 95.44 213.519 95.19 212.399 95.19H209.399V100.875H212.399ZM219.441 98.88C219.681 98.31 220.056 97.875 220.566 97.575C221.076 97.265 221.696 97.11 222.426 97.11V97.845L222.246 97.83C221.376 97.83 220.696 98.105 220.206 98.655C219.716 99.195 219.471 99.95 219.471 100.92V105H218.721V97.17H219.441V98.88ZM224.492 97.17H225.242V105H224.492V97.17ZM224.867 95.265C224.697 95.265 224.552 95.21 224.432 95.1C224.312 94.98 224.252 94.835 224.252 94.665C224.252 94.495 224.312 94.35 224.432 94.23C224.552 94.11 224.697 94.05 224.867 94.05C225.037 94.05 225.182 94.11 225.302 94.23C225.422 94.34 225.482 94.48 225.482 94.65C225.482 94.82 225.422 94.965 225.302 95.085C225.182 95.205 225.037 95.265 224.867 95.265ZM231.508 105.06C230.748 105.06 230.068 104.89 229.468 104.55C228.868 104.21 228.398 103.74 228.058 103.14C227.718 102.53 227.548 101.845 227.548 101.085C227.548 100.315 227.718 99.63 228.058 99.03C228.398 98.42 228.868 97.95 229.468 97.62C230.068 97.28 230.748 97.11 231.508 97.11C232.138 97.11 232.708 97.235 233.218 97.485C233.738 97.725 234.158 98.08 234.478 98.55L233.923 98.955C233.643 98.565 233.293 98.275 232.873 98.085C232.463 97.885 232.008 97.785 231.508 97.785C230.898 97.785 230.348 97.925 229.858 98.205C229.378 98.475 228.998 98.86 228.718 99.36C228.448 99.86 228.313 100.435 228.313 101.085C228.313 101.735 228.448 102.31 228.718 102.81C228.998 103.31 229.378 103.7 229.858 103.98C230.348 104.25 230.898 104.385 231.508 104.385C232.008 104.385 232.463 104.29 232.873 104.1C233.293 103.9 233.643 103.605 233.923 103.215L234.478 103.62C234.158 104.09 233.738 104.45 233.218 104.7C232.708 104.94 232.138 105.06 231.508 105.06ZM243.207 101.265H236.472C236.492 101.875 236.647 102.42 236.937 102.9C237.227 103.37 237.617 103.735 238.107 103.995C238.607 104.255 239.167 104.385 239.787 104.385C240.297 104.385 240.767 104.295 241.197 104.115C241.637 103.925 242.002 103.65 242.292 103.29L242.727 103.785C242.387 104.195 241.957 104.51 241.437 104.73C240.927 104.95 240.372 105.06 239.772 105.06C238.992 105.06 238.297 104.89 237.687 104.55C237.077 104.21 236.597 103.74 236.247 103.14C235.907 102.54 235.737 101.855 235.737 101.085C235.737 100.325 235.897 99.645 236.217 99.045C236.547 98.435 236.997 97.96 237.567 97.62C238.137 97.28 238.777 97.11 239.487 97.11C240.197 97.11 240.832 97.28 241.392 97.62C241.962 97.95 242.407 98.415 242.727 99.015C243.057 99.615 243.222 100.295 243.222 101.055L243.207 101.265ZM239.487 97.77C238.937 97.77 238.442 97.895 238.002 98.145C237.562 98.385 237.207 98.73 236.937 99.18C236.677 99.62 236.527 100.12 236.487 100.68H242.487C242.457 100.12 242.307 99.62 242.037 99.18C241.767 98.74 241.412 98.395 240.972 98.145C240.532 97.895 240.037 97.77 239.487 97.77Z" fill="white"/>
<rect width="256.294" height="62.9494" transform="translate(365.706 68)" fill="url(#paint3_linear)"/>
<path d="M426.932 94.5V105H426.167V95.19H423.602V94.5H426.932ZM440.678 99.585C441.428 99.725 441.998 100.02 442.388 100.47C442.788 100.92 442.988 101.505 442.988 102.225C442.988 103.115 442.663 103.8 442.013 104.28C441.363 104.76 440.398 105 439.118 105H434.438V94.5H438.818C439.958 94.5 440.843 94.735 441.473 95.205C442.113 95.665 442.433 96.325 442.433 97.185C442.433 97.785 442.273 98.29 441.953 98.7C441.643 99.11 441.218 99.405 440.678 99.585ZM435.203 95.16V99.345H438.788C439.708 99.345 440.413 99.17 440.903 98.82C441.403 98.46 441.653 97.935 441.653 97.245C441.653 96.565 441.403 96.05 440.903 95.7C440.413 95.34 439.708 95.16 438.788 95.16H435.203ZM439.118 104.34C440.138 104.34 440.908 104.165 441.428 103.815C441.958 103.455 442.223 102.905 442.223 102.165C442.223 101.425 441.958 100.88 441.428 100.53C440.908 100.18 440.138 100.005 439.118 100.005H435.203V104.34H439.118ZM454.267 94.5V105H453.637L446.482 95.88V105H445.717V94.5H446.362L453.502 103.62V94.5H454.267ZM464.174 99.585C464.924 99.725 465.494 100.02 465.884 100.47C466.284 100.92 466.484 101.505 466.484 102.225C466.484 103.115 466.159 103.8 465.509 104.28C464.859 104.76 463.894 105 462.614 105H457.934V94.5H462.314C463.454 94.5 464.339 94.735 464.969 95.205C465.609 95.665 465.929 96.325 465.929 97.185C465.929 97.785 465.769 98.29 465.449 98.7C465.139 99.11 464.714 99.405 464.174 99.585ZM458.699 95.16V99.345H462.284C463.204 99.345 463.909 99.17 464.399 98.82C464.899 98.46 465.149 97.935 465.149 97.245C465.149 96.565 464.899 96.05 464.399 95.7C463.909 95.34 463.204 95.16 462.284 95.16H458.699ZM462.614 104.34C463.634 104.34 464.404 104.165 464.924 103.815C465.454 103.455 465.719 102.905 465.719 102.165C465.719 101.425 465.454 100.88 464.924 100.53C464.404 100.18 463.634 100.005 462.614 100.005H458.699V104.34H462.614ZM472.316 97.74H478.691V98.37H472.316V97.74ZM472.316 101.13H478.691V101.76H472.316V101.13ZM487.018 98.895C488.548 98.895 489.658 99.165 490.348 99.705C491.038 100.235 491.383 100.99 491.383 101.97C491.383 102.57 491.243 103.105 490.963 103.575C490.693 104.035 490.283 104.4 489.733 104.67C489.183 104.94 488.508 105.075 487.708 105.075C486.948 105.075 486.233 104.945 485.563 104.685C484.903 104.425 484.388 104.085 484.018 103.665L484.408 103.08C484.738 103.46 485.193 103.77 485.773 104.01C486.363 104.25 487.003 104.37 487.693 104.37C488.633 104.37 489.353 104.155 489.853 103.725C490.363 103.295 490.618 102.72 490.618 102C490.618 101.21 490.328 100.61 489.748 100.2C489.178 99.79 488.213 99.585 486.853 99.585H484.723L485.278 94.5H490.843V95.19H485.923L485.518 98.895H487.018ZM496.928 105.075C496.128 105.075 495.413 104.86 494.783 104.43C494.163 103.99 493.678 103.37 493.328 102.57C492.988 101.77 492.818 100.83 492.818 99.75C492.818 98.67 492.988 97.73 493.328 96.93C493.678 96.13 494.163 95.515 494.783 95.085C495.413 94.645 496.128 94.425 496.928 94.425C497.728 94.425 498.438 94.645 499.058 95.085C499.688 95.515 500.173 96.13 500.513 96.93C500.863 97.73 501.038 98.67 501.038 99.75C501.038 100.83 500.863 101.77 500.513 102.57C500.173 103.37 499.688 103.99 499.058 104.43C498.438 104.86 497.728 105.075 496.928 105.075ZM496.928 104.37C497.588 104.37 498.168 104.19 498.668 103.83C499.178 103.46 499.573 102.93 499.853 102.24C500.133 101.54 500.273 100.71 500.273 99.75C500.273 98.79 500.133 97.965 499.853 97.275C499.573 96.575 499.178 96.045 498.668 95.685C498.168 95.315 497.588 95.13 496.928 95.13C496.268 95.13 495.683 95.315 495.173 95.685C494.673 96.045 494.283 96.575 494.003 97.275C493.723 97.965 493.583 98.79 493.583 99.75C493.583 100.71 493.723 101.54 494.003 102.24C494.283 102.93 494.673 103.46 495.173 103.83C495.683 104.19 496.268 104.37 496.928 104.37ZM506.246 100.815L504.206 102.675V105H503.456V93.87H504.206V101.745L509.216 97.17H510.176L506.801 100.335L510.506 105H509.576L506.246 100.815ZM520.012 104.505C519.822 104.685 519.582 104.825 519.292 104.925C519.012 105.015 518.717 105.06 518.407 105.06C517.727 105.06 517.202 104.875 516.832 104.505C516.462 104.125 516.277 103.6 516.277 102.93V97.815H514.837V97.17H516.277V95.46H517.027V97.17H519.517V97.815H517.027V102.855C517.027 103.365 517.147 103.755 517.387 104.025C517.637 104.285 518.002 104.415 518.482 104.415C518.972 104.415 519.377 104.27 519.697 103.98L520.012 104.505ZM524.885 105.06C524.145 105.06 523.475 104.89 522.875 104.55C522.285 104.21 521.82 103.74 521.48 103.14C521.14 102.53 520.97 101.845 520.97 101.085C520.97 100.325 521.14 99.645 521.48 99.045C521.82 98.435 522.285 97.96 522.875 97.62C523.475 97.28 524.145 97.11 524.885 97.11C525.625 97.11 526.29 97.28 526.88 97.62C527.48 97.96 527.95 98.435 528.29 99.045C528.63 99.645 528.8 100.325 528.8 101.085C528.8 101.845 528.63 102.53 528.29 103.14C527.95 103.74 527.48 104.21 526.88 104.55C526.29 104.89 525.625 105.06 524.885 105.06ZM524.885 104.385C525.485 104.385 526.02 104.245 526.49 103.965C526.97 103.685 527.345 103.295 527.615 102.795C527.895 102.295 528.035 101.725 528.035 101.085C528.035 100.445 527.895 99.875 527.615 99.375C527.345 98.875 526.97 98.485 526.49 98.205C526.02 97.925 525.485 97.785 524.885 97.785C524.285 97.785 523.745 97.925 523.265 98.205C522.795 98.485 522.42 98.875 522.14 99.375C521.87 99.875 521.735 100.445 521.735 101.085C521.735 101.725 521.87 102.295 522.14 102.795C522.42 103.295 522.795 103.685 523.265 103.965C523.745 104.245 524.285 104.385 524.885 104.385ZM533.917 100.815L531.877 102.675V105H531.127V93.87H531.877V101.745L536.887 97.17H537.847L534.472 100.335L538.177 105H537.247L533.917 100.815ZM546.238 101.265H539.503C539.523 101.875 539.678 102.42 539.968 102.9C540.258 103.37 540.648 103.735 541.138 103.995C541.638 104.255 542.198 104.385 542.818 104.385C543.328 104.385 543.798 104.295 544.228 104.115C544.668 103.925 545.033 103.65 545.323 103.29L545.758 103.785C545.418 104.195 544.988 104.51 544.468 104.73C543.958 104.95 543.403 105.06 542.803 105.06C542.023 105.06 541.328 104.89 540.718 104.55C540.108 104.21 539.628 103.74 539.278 103.14C538.938 102.54 538.768 101.855 538.768 101.085C538.768 100.325 538.928 99.645 539.248 99.045C539.578 98.435 540.028 97.96 540.598 97.62C541.168 97.28 541.808 97.11 542.518 97.11C543.228 97.11 543.863 97.28 544.423 97.62C544.993 97.95 545.438 98.415 545.758 99.015C546.088 99.615 546.253 100.295 546.253 101.055L546.238 101.265ZM542.518 97.77C541.968 97.77 541.473 97.895 541.033 98.145C540.593 98.385 540.238 98.73 539.968 99.18C539.708 99.62 539.558 100.12 539.518 100.68H545.518C545.488 100.12 545.338 99.62 545.068 99.18C544.798 98.74 544.443 98.395 544.003 98.145C543.563 97.895 543.068 97.77 542.518 97.77ZM552.398 97.11C553.378 97.11 554.153 97.395 554.723 97.965C555.293 98.535 555.578 99.355 555.578 100.425V105H554.828V100.485C554.828 99.605 554.603 98.935 554.153 98.475C553.713 98.015 553.093 97.785 552.293 97.785C551.373 97.785 550.648 98.06 550.118 98.61C549.588 99.16 549.323 99.9 549.323 100.83V105H548.573V97.17H549.293V98.865C549.563 98.315 549.963 97.885 550.493 97.575C551.033 97.265 551.668 97.11 552.398 97.11ZM560.646 105.06C560.016 105.06 559.416 104.965 558.846 104.775C558.276 104.585 557.831 104.345 557.511 104.055L557.856 103.455C558.176 103.725 558.586 103.95 559.086 104.13C559.596 104.31 560.126 104.4 560.676 104.4C561.466 104.4 562.046 104.27 562.416 104.01C562.796 103.75 562.986 103.39 562.986 102.93C562.986 102.6 562.881 102.34 562.671 102.15C562.471 101.96 562.221 101.82 561.921 101.73C561.621 101.64 561.206 101.545 560.676 101.445C560.056 101.335 559.556 101.215 559.176 101.085C558.796 100.955 558.471 100.745 558.201 100.455C557.931 100.165 557.796 99.765 557.796 99.255C557.796 98.635 558.051 98.125 558.561 97.725C559.081 97.315 559.816 97.11 560.766 97.11C561.266 97.11 561.761 97.18 562.251 97.32C562.741 97.46 563.141 97.645 563.451 97.875L563.106 98.475C562.786 98.245 562.421 98.07 562.011 97.95C561.601 97.83 561.181 97.77 560.751 97.77C560.021 97.77 559.471 97.905 559.101 98.175C558.731 98.445 558.546 98.8 558.546 99.24C558.546 99.59 558.651 99.865 558.861 100.065C559.071 100.255 559.326 100.4 559.626 100.5C559.936 100.59 560.366 100.69 560.916 100.8C561.526 100.91 562.016 101.03 562.386 101.16C562.766 101.28 563.086 101.48 563.346 101.76C563.606 102.04 563.736 102.425 563.736 102.915C563.736 103.565 563.466 104.085 562.926 104.475C562.386 104.865 561.626 105.06 560.646 105.06Z" fill="white"/>
<rect width="361.21" height="62.9494" transform="translate(0 136)" fill="url(#paint4_linear)"/>
<path d="M138.827 162.5C140.147 162.5 141.182 162.815 141.932 163.445C142.682 164.065 143.057 164.93 143.057 166.04C143.057 167.14 142.682 168.005 141.932 168.635C141.182 169.255 140.147 169.565 138.827 169.565H135.827V173H135.062V162.5H138.827ZM138.827 168.875C139.947 168.875 140.802 168.63 141.392 168.14C141.982 167.65 142.277 166.95 142.277 166.04C142.277 165.13 141.982 164.43 141.392 163.94C140.802 163.44 139.947 163.19 138.827 163.19H135.827V168.875H138.827ZM145.869 166.88C146.109 166.31 146.484 165.875 146.994 165.575C147.504 165.265 148.124 165.11 148.854 165.11V165.845L148.674 165.83C147.804 165.83 147.124 166.105 146.634 166.655C146.144 167.195 145.899 167.95 145.899 168.92V173H145.149V165.17H145.869V166.88ZM157.462 169.265H150.727C150.747 169.875 150.902 170.42 151.192 170.9C151.482 171.37 151.872 171.735 152.362 171.995C152.862 172.255 153.422 172.385 154.042 172.385C154.552 172.385 155.022 172.295 155.452 172.115C155.892 171.925 156.257 171.65 156.547 171.29L156.982 171.785C156.642 172.195 156.212 172.51 155.692 172.73C155.182 172.95 154.627 173.06 154.027 173.06C153.247 173.06 152.552 172.89 151.942 172.55C151.332 172.21 150.852 171.74 150.502 171.14C150.162 170.54 149.992 169.855 149.992 169.085C149.992 168.325 150.152 167.645 150.472 167.045C150.802 166.435 151.252 165.96 151.822 165.62C152.392 165.28 153.032 165.11 153.742 165.11C154.452 165.11 155.087 165.28 155.647 165.62C156.217 165.95 156.662 166.415 156.982 167.015C157.312 167.615 157.477 168.295 157.477 169.055L157.462 169.265ZM153.742 165.77C153.192 165.77 152.697 165.895 152.257 166.145C151.817 166.385 151.462 166.73 151.192 167.18C150.932 167.62 150.782 168.12 150.742 168.68H156.742C156.712 168.12 156.562 167.62 156.292 167.18C156.022 166.74 155.667 166.395 155.227 166.145C154.787 165.895 154.292 165.77 153.742 165.77ZM161.777 173.06C161.147 173.06 160.547 172.965 159.977 172.775C159.407 172.585 158.962 172.345 158.642 172.055L158.987 171.455C159.307 171.725 159.717 171.95 160.217 172.13C160.727 172.31 161.257 172.4 161.807 172.4C162.597 172.4 163.177 172.27 163.547 172.01C163.927 171.75 164.117 171.39 164.117 170.93C164.117 170.6 164.012 170.34 163.802 170.15C163.602 169.96 163.352 169.82 163.052 169.73C162.752 169.64 162.337 169.545 161.807 169.445C161.187 169.335 160.687 169.215 160.307 169.085C159.927 168.955 159.602 168.745 159.332 168.455C159.062 168.165 158.927 167.765 158.927 167.255C158.927 166.635 159.182 166.125 159.692 165.725C160.212 165.315 160.947 165.11 161.897 165.11C162.397 165.11 162.892 165.18 163.382 165.32C163.872 165.46 164.272 165.645 164.582 165.875L164.237 166.475C163.917 166.245 163.552 166.07 163.142 165.95C162.732 165.83 162.312 165.77 161.882 165.77C161.152 165.77 160.602 165.905 160.232 166.175C159.862 166.445 159.677 166.8 159.677 167.24C159.677 167.59 159.782 167.865 159.992 168.065C160.202 168.255 160.457 168.4 160.757 168.5C161.067 168.59 161.497 168.69 162.047 168.8C162.657 168.91 163.147 169.03 163.517 169.16C163.897 169.28 164.217 169.48 164.477 169.76C164.737 170.04 164.867 170.425 164.867 170.915C164.867 171.565 164.597 172.085 164.057 172.475C163.517 172.865 162.757 173.06 161.777 173.06ZM169.6 165.11C170.57 165.11 171.315 165.36 171.835 165.86C172.355 166.35 172.615 167.075 172.615 168.035V173H171.895V171.605C171.645 172.065 171.28 172.425 170.8 172.685C170.32 172.935 169.745 173.06 169.075 173.06C168.205 173.06 167.515 172.855 167.005 172.445C166.505 172.035 166.255 171.495 166.255 170.825C166.255 170.175 166.485 169.65 166.945 169.25C167.415 168.84 168.16 168.635 169.18 168.635H171.865V168.005C171.865 167.275 171.665 166.72 171.265 166.34C170.875 165.96 170.3 165.77 169.54 165.77C169.02 165.77 168.52 165.86 168.04 166.04C167.57 166.22 167.17 166.46 166.84 166.76L166.465 166.22C166.855 165.87 167.325 165.6 167.875 165.41C168.425 165.21 169 165.11 169.6 165.11ZM169.18 172.445C169.83 172.445 170.38 172.295 170.83 171.995C171.29 171.695 171.635 171.26 171.865 170.69V169.22H169.195C168.425 169.22 167.865 169.36 167.515 169.64C167.175 169.92 167.005 170.305 167.005 170.795C167.005 171.305 167.195 171.71 167.575 172.01C167.955 172.3 168.49 172.445 169.18 172.445ZM175.706 161.87H176.456V173H175.706V161.87ZM186.232 169.265H179.497C179.517 169.875 179.672 170.42 179.962 170.9C180.252 171.37 180.642 171.735 181.132 171.995C181.632 172.255 182.192 172.385 182.812 172.385C183.322 172.385 183.792 172.295 184.222 172.115C184.662 171.925 185.027 171.65 185.317 171.29L185.752 171.785C185.412 172.195 184.982 172.51 184.462 172.73C183.952 172.95 183.397 173.06 182.797 173.06C182.017 173.06 181.322 172.89 180.712 172.55C180.102 172.21 179.622 171.74 179.272 171.14C178.932 170.54 178.762 169.855 178.762 169.085C178.762 168.325 178.922 167.645 179.242 167.045C179.572 166.435 180.022 165.96 180.592 165.62C181.162 165.28 181.802 165.11 182.512 165.11C183.222 165.11 183.857 165.28 184.417 165.62C184.987 165.95 185.432 166.415 185.752 167.015C186.082 167.615 186.247 168.295 186.247 169.055L186.232 169.265ZM182.512 165.77C181.962 165.77 181.467 165.895 181.027 166.145C180.587 166.385 180.232 166.73 179.962 167.18C179.702 167.62 179.552 168.12 179.512 168.68H185.512C185.482 168.12 185.332 167.62 185.062 167.18C184.792 166.74 184.437 166.395 183.997 166.145C183.557 165.895 183.062 165.77 182.512 165.77ZM196.424 162.5C197.744 162.5 198.779 162.815 199.529 163.445C200.279 164.065 200.654 164.93 200.654 166.04C200.654 167.14 200.279 168.005 199.529 168.635C198.779 169.255 197.744 169.565 196.424 169.565H193.424V173H192.659V162.5H196.424ZM196.424 168.875C197.544 168.875 198.399 168.63 198.989 168.14C199.579 167.65 199.874 166.95 199.874 166.04C199.874 165.13 199.579 164.43 198.989 163.94C198.399 163.44 197.544 163.19 196.424 163.19H193.424V168.875H196.424ZM203.467 166.88C203.707 166.31 204.082 165.875 204.592 165.575C205.102 165.265 205.722 165.11 206.452 165.11V165.845L206.272 165.83C205.402 165.83 204.722 166.105 204.232 166.655C203.742 167.195 203.497 167.95 203.497 168.92V173H202.747V165.17H203.467V166.88ZM208.518 165.17H209.268V173H208.518V165.17ZM208.893 163.265C208.723 163.265 208.578 163.21 208.458 163.1C208.338 162.98 208.278 162.835 208.278 162.665C208.278 162.495 208.338 162.35 208.458 162.23C208.578 162.11 208.723 162.05 208.893 162.05C209.063 162.05 209.208 162.11 209.328 162.23C209.448 162.34 209.508 162.48 209.508 162.65C209.508 162.82 209.448 162.965 209.328 163.085C209.208 163.205 209.063 163.265 208.893 163.265ZM215.534 173.06C214.774 173.06 214.094 172.89 213.494 172.55C212.894 172.21 212.424 171.74 212.084 171.14C211.744 170.53 211.574 169.845 211.574 169.085C211.574 168.315 211.744 167.63 212.084 167.03C212.424 166.42 212.894 165.95 213.494 165.62C214.094 165.28 214.774 165.11 215.534 165.11C216.164 165.11 216.734 165.235 217.244 165.485C217.764 165.725 218.184 166.08 218.504 166.55L217.949 166.955C217.669 166.565 217.319 166.275 216.899 166.085C216.489 165.885 216.034 165.785 215.534 165.785C214.924 165.785 214.374 165.925 213.884 166.205C213.404 166.475 213.024 166.86 212.744 167.36C212.474 167.86 212.339 168.435 212.339 169.085C212.339 169.735 212.474 170.31 212.744 170.81C213.024 171.31 213.404 171.7 213.884 171.98C214.374 172.25 214.924 172.385 215.534 172.385C216.034 172.385 216.489 172.29 216.899 172.1C217.319 171.9 217.669 171.605 217.949 171.215L218.504 171.62C218.184 172.09 217.764 172.45 217.244 172.7C216.734 172.94 216.164 173.06 215.534 173.06ZM227.233 169.265H220.498C220.518 169.875 220.673 170.42 220.963 170.9C221.253 171.37 221.643 171.735 222.133 171.995C222.633 172.255 223.193 172.385 223.813 172.385C224.323 172.385 224.793 172.295 225.223 172.115C225.663 171.925 226.028 171.65 226.318 171.29L226.753 171.785C226.413 172.195 225.983 172.51 225.463 172.73C224.953 172.95 224.398 173.06 223.798 173.06C223.018 173.06 222.323 172.89 221.713 172.55C221.103 172.21 220.623 171.74 220.273 171.14C219.933 170.54 219.763 169.855 219.763 169.085C219.763 168.325 219.923 167.645 220.243 167.045C220.573 166.435 221.023 165.96 221.593 165.62C222.163 165.28 222.803 165.11 223.513 165.11C224.223 165.11 224.858 165.28 225.418 165.62C225.988 165.95 226.433 166.415 226.753 167.015C227.083 167.615 227.248 168.295 227.248 169.055L227.233 169.265ZM223.513 165.77C222.963 165.77 222.468 165.895 222.028 166.145C221.588 166.385 221.233 166.73 220.963 167.18C220.703 167.62 220.553 168.12 220.513 168.68H226.513C226.483 168.12 226.333 167.62 226.063 167.18C225.793 166.74 225.438 166.395 224.998 166.145C224.558 165.895 224.063 165.77 223.513 165.77Z" fill="white"/>
<rect width="256.294" height="62.9494" transform="translate(365.706 136)" fill="url(#paint5_linear)"/>
<path d="M426.932 162.5V173H426.167V163.19H423.602V162.5H426.932ZM440.678 167.585C441.428 167.725 441.998 168.02 442.388 168.47C442.788 168.92 442.988 169.505 442.988 170.225C442.988 171.115 442.663 171.8 442.013 172.28C441.363 172.76 440.398 173 439.118 173H434.438V162.5H438.818C439.958 162.5 440.843 162.735 441.473 163.205C442.113 163.665 442.433 164.325 442.433 165.185C442.433 165.785 442.273 166.29 441.953 166.7C441.643 167.11 441.218 167.405 440.678 167.585ZM435.203 163.16V167.345H438.788C439.708 167.345 440.413 167.17 440.903 166.82C441.403 166.46 441.653 165.935 441.653 165.245C441.653 164.565 441.403 164.05 440.903 163.7C440.413 163.34 439.708 163.16 438.788 163.16H435.203ZM439.118 172.34C440.138 172.34 440.908 172.165 441.428 171.815C441.958 171.455 442.223 170.905 442.223 170.165C442.223 169.425 441.958 168.88 441.428 168.53C440.908 168.18 440.138 168.005 439.118 168.005H435.203V172.34H439.118ZM454.267 162.5V173H453.637L446.482 163.88V173H445.717V162.5H446.362L453.502 171.62V162.5H454.267ZM464.174 167.585C464.924 167.725 465.494 168.02 465.884 168.47C466.284 168.92 466.484 169.505 466.484 170.225C466.484 171.115 466.159 171.8 465.509 172.28C464.859 172.76 463.894 173 462.614 173H457.934V162.5H462.314C463.454 162.5 464.339 162.735 464.969 163.205C465.609 163.665 465.929 164.325 465.929 165.185C465.929 165.785 465.769 166.29 465.449 166.7C465.139 167.11 464.714 167.405 464.174 167.585ZM458.699 163.16V167.345H462.284C463.204 167.345 463.909 167.17 464.399 166.82C464.899 166.46 465.149 165.935 465.149 165.245C465.149 164.565 464.899 164.05 464.399 163.7C463.909 163.34 463.204 163.16 462.284 163.16H458.699ZM462.614 172.34C463.634 172.34 464.404 172.165 464.924 171.815C465.454 171.455 465.719 170.905 465.719 170.165C465.719 169.425 465.454 168.88 464.924 168.53C464.404 168.18 463.634 168.005 462.614 168.005H458.699V172.34H462.614ZM472.316 165.74H478.691V166.37H472.316V165.74ZM472.316 169.13H478.691V169.76H472.316V169.13ZM487.648 167.075C488.808 167.105 489.688 167.39 490.288 167.93C490.898 168.46 491.203 169.165 491.203 170.045C491.203 170.635 491.063 171.16 490.783 171.62C490.503 172.07 490.083 172.425 489.523 172.685C488.973 172.945 488.308 173.075 487.528 173.075C486.768 173.075 486.053 172.95 485.383 172.7C484.713 172.44 484.193 172.095 483.823 171.665L484.213 171.08C484.553 171.46 485.013 171.77 485.593 172.01C486.183 172.25 486.828 172.37 487.528 172.37C488.458 172.37 489.173 172.165 489.673 171.755C490.173 171.335 490.423 170.765 490.423 170.045C490.423 169.315 490.168 168.745 489.658 168.335C489.148 167.925 488.383 167.72 487.363 167.72H486.703V167.165L489.808 163.19H484.213V162.5H490.798V163.04L487.648 167.075ZM496.928 173.075C496.128 173.075 495.413 172.86 494.783 172.43C494.163 171.99 493.678 171.37 493.328 170.57C492.988 169.77 492.818 168.83 492.818 167.75C492.818 166.67 492.988 165.73 493.328 164.93C493.678 164.13 494.163 163.515 494.783 163.085C495.413 162.645 496.128 162.425 496.928 162.425C497.728 162.425 498.438 162.645 499.058 163.085C499.688 163.515 500.173 164.13 500.513 164.93C500.863 165.73 501.038 166.67 501.038 167.75C501.038 168.83 500.863 169.77 500.513 170.57C500.173 171.37 499.688 171.99 499.058 172.43C498.438 172.86 497.728 173.075 496.928 173.075ZM496.928 172.37C497.588 172.37 498.168 172.19 498.668 171.83C499.178 171.46 499.573 170.93 499.853 170.24C500.133 169.54 500.273 168.71 500.273 167.75C500.273 166.79 500.133 165.965 499.853 165.275C499.573 164.575 499.178 164.045 498.668 163.685C498.168 163.315 497.588 163.13 496.928 163.13C496.268 163.13 495.683 163.315 495.173 163.685C494.673 164.045 494.283 164.575 494.003 165.275C493.723 165.965 493.583 166.79 493.583 167.75C493.583 168.71 493.723 169.54 494.003 170.24C494.283 170.93 494.673 171.46 495.173 171.83C495.683 172.19 496.268 172.37 496.928 172.37ZM506.246 168.815L504.206 170.675V173H503.456V161.87H504.206V169.745L509.216 165.17H510.176L506.801 168.335L510.506 173H509.576L506.246 168.815ZM520.012 172.505C519.822 172.685 519.582 172.825 519.292 172.925C519.012 173.015 518.717 173.06 518.407 173.06C517.727 173.06 517.202 172.875 516.832 172.505C516.462 172.125 516.277 171.6 516.277 170.93V165.815H514.837V165.17H516.277V163.46H517.027V165.17H519.517V165.815H517.027V170.855C517.027 171.365 517.147 171.755 517.387 172.025C517.637 172.285 518.002 172.415 518.482 172.415C518.972 172.415 519.377 172.27 519.697 171.98L520.012 172.505ZM524.885 173.06C524.145 173.06 523.475 172.89 522.875 172.55C522.285 172.21 521.82 171.74 521.48 171.14C521.14 170.53 520.97 169.845 520.97 169.085C520.97 168.325 521.14 167.645 521.48 167.045C521.82 166.435 522.285 165.96 522.875 165.62C523.475 165.28 524.145 165.11 524.885 165.11C525.625 165.11 526.29 165.28 526.88 165.62C527.48 165.96 527.95 166.435 528.29 167.045C528.63 167.645 528.8 168.325 528.8 169.085C528.8 169.845 528.63 170.53 528.29 171.14C527.95 171.74 527.48 172.21 526.88 172.55C526.29 172.89 525.625 173.06 524.885 173.06ZM524.885 172.385C525.485 172.385 526.02 172.245 526.49 171.965C526.97 171.685 527.345 171.295 527.615 170.795C527.895 170.295 528.035 169.725 528.035 169.085C528.035 168.445 527.895 167.875 527.615 167.375C527.345 166.875 526.97 166.485 526.49 166.205C526.02 165.925 525.485 165.785 524.885 165.785C524.285 165.785 523.745 165.925 523.265 166.205C522.795 166.485 522.42 166.875 522.14 167.375C521.87 167.875 521.735 168.445 521.735 169.085C521.735 169.725 521.87 170.295 522.14 170.795C522.42 171.295 522.795 171.685 523.265 171.965C523.745 172.245 524.285 172.385 524.885 172.385ZM533.917 168.815L531.877 170.675V173H531.127V161.87H531.877V169.745L536.887 165.17H537.847L534.472 168.335L538.177 173H537.247L533.917 168.815ZM546.238 169.265H539.503C539.523 169.875 539.678 170.42 539.968 170.9C540.258 171.37 540.648 171.735 541.138 171.995C541.638 172.255 542.198 172.385 542.818 172.385C543.328 172.385 543.798 172.295 544.228 172.115C544.668 171.925 545.033 171.65 545.323 171.29L545.758 171.785C545.418 172.195 544.988 172.51 544.468 172.73C543.958 172.95 543.403 173.06 542.803 173.06C542.023 173.06 541.328 172.89 540.718 172.55C540.108 172.21 539.628 171.74 539.278 171.14C538.938 170.54 538.768 169.855 538.768 169.085C538.768 168.325 538.928 167.645 539.248 167.045C539.578 166.435 540.028 165.96 540.598 165.62C541.168 165.28 541.808 165.11 542.518 165.11C543.228 165.11 543.863 165.28 544.423 165.62C544.993 165.95 545.438 166.415 545.758 167.015C546.088 167.615 546.253 168.295 546.253 169.055L546.238 169.265ZM542.518 165.77C541.968 165.77 541.473 165.895 541.033 166.145C540.593 166.385 540.238 166.73 539.968 167.18C539.708 167.62 539.558 168.12 539.518 168.68H545.518C545.488 168.12 545.338 167.62 545.068 167.18C544.798 166.74 544.443 166.395 544.003 166.145C543.563 165.895 543.068 165.77 542.518 165.77ZM552.398 165.11C553.378 165.11 554.153 165.395 554.723 165.965C555.293 166.535 555.578 167.355 555.578 168.425V173H554.828V168.485C554.828 167.605 554.603 166.935 554.153 166.475C553.713 166.015 553.093 165.785 552.293 165.785C551.373 165.785 550.648 166.06 550.118 166.61C549.588 167.16 549.323 167.9 549.323 168.83V173H548.573V165.17H549.293V166.865C549.563 166.315 549.963 165.885 550.493 165.575C551.033 165.265 551.668 165.11 552.398 165.11ZM560.646 173.06C560.016 173.06 559.416 172.965 558.846 172.775C558.276 172.585 557.831 172.345 557.511 172.055L557.856 171.455C558.176 171.725 558.586 171.95 559.086 172.13C559.596 172.31 560.126 172.4 560.676 172.4C561.466 172.4 562.046 172.27 562.416 172.01C562.796 171.75 562.986 171.39 562.986 170.93C562.986 170.6 562.881 170.34 562.671 170.15C562.471 169.96 562.221 169.82 561.921 169.73C561.621 169.64 561.206 169.545 560.676 169.445C560.056 169.335 559.556 169.215 559.176 169.085C558.796 168.955 558.471 168.745 558.201 168.455C557.931 168.165 557.796 167.765 557.796 167.255C557.796 166.635 558.051 166.125 558.561 165.725C559.081 165.315 559.816 165.11 560.766 165.11C561.266 165.11 561.761 165.18 562.251 165.32C562.741 165.46 563.141 165.645 563.451 165.875L563.106 166.475C562.786 166.245 562.421 166.07 562.011 165.95C561.601 165.83 561.181 165.77 560.751 165.77C560.021 165.77 559.471 165.905 559.101 166.175C558.731 166.445 558.546 166.8 558.546 167.24C558.546 167.59 558.651 167.865 558.861 168.065C559.071 168.255 559.326 168.4 559.626 168.5C559.936 168.59 560.366 168.69 560.916 168.8C561.526 168.91 562.016 169.03 562.386 169.16C562.766 169.28 563.086 169.48 563.346 169.76C563.606 170.04 563.736 170.425 563.736 170.915C563.736 171.565 563.466 172.085 562.926 172.475C562.386 172.865 561.626 173.06 560.646 173.06Z" fill="white"/>
<defs>
<linearGradient id="paint0_linear" x1="435.5" y1="30.9999" x2="-123" y2="30.9999" gradientUnits="userSpaceOnUse">
<stop stop-color="#C4C4C4" stop-opacity="0.1"/>
<stop offset="0.494146" stop-color="white" stop-opacity="0.04"/>
<stop offset="1" stop-color="#C4C4C4" stop-opacity="0.1"/>
</linearGradient>
<linearGradient id="paint1_linear" x1="309.006" y1="30.9999" x2="-87.2739" y2="30.9999" gradientUnits="userSpaceOnUse">
<stop stop-color="#C4C4C4" stop-opacity="0.1"/>
<stop offset="0.494146" stop-color="white" stop-opacity="0.04"/>
<stop offset="1" stop-color="#C4C4C4" stop-opacity="0.1"/>
</linearGradient>
<linearGradient id="paint2_linear" x1="435.5" y1="30.9999" x2="-123" y2="30.9999" gradientUnits="userSpaceOnUse">
<stop stop-color="#C4C4C4" stop-opacity="0.1"/>
<stop offset="0.494146" stop-color="white" stop-opacity="0.04"/>
<stop offset="1" stop-color="#C4C4C4" stop-opacity="0.1"/>
</linearGradient>
<linearGradient id="paint3_linear" x1="309.006" y1="30.9999" x2="-87.2739" y2="30.9999" gradientUnits="userSpaceOnUse">
<stop stop-color="#C4C4C4" stop-opacity="0.1"/>
<stop offset="0.494146" stop-color="white" stop-opacity="0.04"/>
<stop offset="1" stop-color="#C4C4C4" stop-opacity="0.1"/>
</linearGradient>
<linearGradient id="paint4_linear" x1="435.5" y1="30.9999" x2="-123" y2="30.9999" gradientUnits="userSpaceOnUse">
<stop stop-color="#C4C4C4" stop-opacity="0.1"/>
<stop offset="0.494146" stop-color="white" stop-opacity="0.04"/>
<stop offset="1" stop-color="#C4C4C4" stop-opacity="0.1"/>
</linearGradient>
<linearGradient id="paint5_linear" x1="309.006" y1="30.9999" x2="-87.2739" y2="30.9999" gradientUnits="userSpaceOnUse">
<stop stop-color="#C4C4C4" stop-opacity="0.1"/>
<stop offset="0.494146" stop-color="white" stop-opacity="0.04"/>
<stop offset="1" stop-color="#C4C4C4" stop-opacity="0.1"/>
</linearGradient>
</defs>
</svg>
